<?xml version="1.0" encoding="utf-8"?>
<!-- Generator: Adobe Illustrator 28.0.0, SVG Export Plug-In . SVG Version: 6.00 Build 0)  -->
<svg version="1.1" id="Layer_1" xmlns="http://www.w3.org/2000/svg" xmlns:xlink="http://www.w3.org/1999/xlink" x="0px" y="0px"
	 viewBox="0 0 200.16 205.48" style="enable-background:new 0 0 200.16 205.48;" xml:space="preserve">
<style type="text/css">
	.st0{fill:#FFFFFF;}
	.st1{fill:#FFFFFF;stroke:#000000;stroke-miterlimit:10;}
	.st2{fill:none;stroke:#000000;stroke-width:10;stroke-miterlimit:10;}
</style>
<g>
	<g>
		<circle class="st0" cx="231.16" cy="500.67" r="30.5"/>
		<path d="M231.16,470.67c16.54,0,30,13.46,30,30c0,16.54-13.46,30-30,30s-30-13.46-30-30
			C201.16,484.13,214.62,470.67,231.16,470.67 M231.16,469.67c-17.12,0-31,13.88-31,31s13.88,31,31,31s31-13.88,31-31
			S248.28,469.67,231.16,469.67L231.16,469.67z"/>
	</g>
	<g>
		<circle class="st0" cx="231.16" cy="500.67" r="19.16"/>
		<path d="M231.16,482.02c10.29,0,18.66,8.37,18.66,18.66s-8.37,18.66-18.66,18.66s-18.66-8.37-18.66-18.66
			S220.87,482.02,231.16,482.02 M231.16,481.02c-10.86,0-19.66,8.8-19.66,19.66s8.8,19.66,19.66,19.66s19.66-8.8,19.66-19.66
			S242.01,481.02,231.16,481.02L231.16,481.02z"/>
	</g>
	<line class="st1" x1="244.66" y1="486.4" x2="250.82" y2="476.7"/>
	<line class="st1" x1="217.55" y1="487.15" x2="211.39" y2="477.46"/>
	<line class="st1" x1="244.66" y1="514.51" x2="250.82" y2="524.2"/>
	<line class="st1" x1="217.55" y1="514.51" x2="211.39" y2="524.2"/>
</g>
<g>
	<g>
		<g>
			<circle class="st0" cx="100.08" cy="102.74" r="96.28"/>
		</g>
		<g>
			<path d="M100.08,8.04c52.22,0,94.7,42.48,94.7,94.7s-42.48,94.7-94.7,94.7s-94.7-42.48-94.7-94.7S47.86,8.04,100.08,8.04
				 M100.08,4.89c-54.04,0-97.85,43.81-97.85,97.85s43.81,97.85,97.85,97.85c54.04,0,97.85-43.81,97.85-97.85
				S154.12,4.89,100.08,4.89L100.08,4.89z"/>
		</g>
	</g>
	<g>
		<g>
			<circle class="st0" cx="100.08" cy="102.74" r="60.48"/>
		</g>
		<g>
			<path d="M100.08,43.84c32.48,0,58.9,26.42,58.9,58.9s-26.42,58.9-58.9,58.9s-58.9-26.42-58.9-58.9S67.6,43.84,100.08,43.84
				 M100.08,40.69c-34.27,0-62.05,27.78-62.05,62.05c0,34.27,27.78,62.05,62.05,62.05s62.05-27.78,62.05-62.05
				C162.13,68.47,134.35,40.69,100.08,40.69L100.08,40.69z"/>
		</g>
	</g>
	<g>
		<line class="st0" x1="142.71" y1="57.67" x2="162.13" y2="27.08"/>
		<rect x="134.3" y="40.8" transform="matrix(0.5363 -0.844 0.844 0.5363 34.9109 148.2954)" width="36.24" height="3.16"/>
	</g>
	<g>
		<line class="st0" x1="57.12" y1="60.06" x2="37.69" y2="29.46"/>
		<rect x="45.83" y="26.64" transform="matrix(0.8442 -0.536 0.536 0.8442 -16.6072 32.381)" width="3.16" height="36.24"/>
	</g>
	<g>
		<line class="st0" x1="142.71" y1="146.41" x2="162.13" y2="177.01"/>
		<rect x="150.84" y="143.59" transform="matrix(0.8442 -0.536 0.536 0.8442 -62.9315 106.8894)" width="3.16" height="36.24"/>
	</g>
	<g>
		<line class="st0" x1="57.12" y1="146.41" x2="37.69" y2="177.01"/>
		<rect x="29.29" y="160.13" transform="matrix(0.5359 -0.8443 0.8443 0.5359 -114.5281 115.0801)" width="36.24" height="3.16"/>
	</g>
</g>
<g>
	<g>
		<circle class="st0" cx="339.16" cy="500.67" r="30.5"/>
		<path d="M339.16,470.67c16.54,0,30,13.46,30,30c0,16.54-13.46,30-30,30s-30-13.46-30-30
			C309.16,484.13,322.62,470.67,339.16,470.67 M339.16,469.67c-17.12,0-31,13.88-31,31s13.88,31,31,31s31-13.88,31-31
			S356.28,469.67,339.16,469.67L339.16,469.67z"/>
	</g>
	<g>
		<circle class="st0" cx="339.16" cy="500.67" r="19.16"/>
		<path d="M339.16,482.02c10.29,0,18.66,8.37,18.66,18.66s-8.37,18.66-18.66,18.66s-18.66-8.37-18.66-18.66
			S328.87,482.02,339.16,482.02 M339.16,481.02c-10.86,0-19.66,8.8-19.66,19.66s8.8,19.66,19.66,19.66s19.66-8.8,19.66-19.66
			S350.01,481.02,339.16,481.02L339.16,481.02z"/>
	</g>
	<line class="st1" x1="352.66" y1="486.4" x2="358.82" y2="476.7"/>
	<line class="st1" x1="325.55" y1="487.15" x2="319.39" y2="477.46"/>
	<line class="st1" x1="352.66" y1="514.51" x2="358.82" y2="524.2"/>
	<line class="st1" x1="325.55" y1="514.51" x2="319.39" y2="524.2"/>
</g>
<g>
	<g>
		<circle class="st0" cx="447.16" cy="500.67" r="30.5"/>
		<path d="M447.16,470.67c16.54,0,30,13.46,30,30c0,16.54-13.46,30-30,30s-30-13.46-30-30
			C417.16,484.13,430.62,470.67,447.16,470.67 M447.16,469.67c-17.12,0-31,13.88-31,31s13.88,31,31,31s31-13.88,31-31
			S464.28,469.67,447.16,469.67L447.16,469.67z"/>
	</g>
	<g>
		<circle class="st0" cx="447.16" cy="500.67" r="19.16"/>
		<path d="M447.16,482.02c10.29,0,18.66,8.37,18.66,18.66s-8.37,18.66-18.66,18.66s-18.66-8.37-18.66-18.66
			S436.87,482.02,447.16,482.02 M447.16,481.02c-10.86,0-19.66,8.8-19.66,19.66s8.8,19.66,19.66,19.66s19.66-8.8,19.66-19.66
			S458.01,481.02,447.16,481.02L447.16,481.02z"/>
	</g>
	<line class="st1" x1="460.66" y1="486.4" x2="466.82" y2="476.7"/>
	<line class="st1" x1="433.55" y1="487.15" x2="427.39" y2="477.46"/>
	<line class="st1" x1="460.66" y1="514.51" x2="466.82" y2="524.2"/>
	<line class="st1" x1="433.55" y1="514.51" x2="427.39" y2="524.2"/>
</g>
<g>
	<g>
		<circle class="st0" cx="555.16" cy="500.67" r="30.5"/>
		<path d="M555.16,470.67c16.54,0,30,13.46,30,30c0,16.54-13.46,30-30,30s-30-13.46-30-30
			C525.16,484.13,538.62,470.67,555.16,470.67 M555.16,469.67c-17.12,0-31,13.88-31,31s13.88,31,31,31s31-13.88,31-31
			S572.28,469.67,555.16,469.67L555.16,469.67z"/>
	</g>
	<g>
		<circle class="st0" cx="555.16" cy="500.67" r="19.16"/>
		<path d="M555.16,482.02c10.29,0,18.66,8.37,18.66,18.66s-8.37,18.66-18.66,18.66s-18.66-8.37-18.66-18.66
			S544.87,482.02,555.16,482.02 M555.16,481.02c-10.86,0-19.66,8.8-19.66,19.66s8.8,19.66,19.66,19.66s19.66-8.8,19.66-19.66
			S566.01,481.02,555.16,481.02L555.16,481.02z"/>
	</g>
	<line class="st1" x1="568.66" y1="486.4" x2="574.82" y2="476.7"/>
	<line class="st1" x1="541.55" y1="487.15" x2="535.39" y2="477.46"/>
	<line class="st1" x1="568.66" y1="514.51" x2="574.82" y2="524.2"/>
	<line class="st1" x1="541.55" y1="514.51" x2="535.39" y2="524.2"/>
</g>
<g>
	<g>
		<circle class="st0" cx="663.16" cy="500.67" r="30.5"/>
		<path d="M663.16,470.67c16.54,0,30,13.46,30,30c0,16.54-13.46,30-30,30s-30-13.46-30-30
			C633.16,484.13,646.62,470.67,663.16,470.67 M663.16,469.67c-17.12,0-31,13.88-31,31s13.88,31,31,31s31-13.88,31-31
			S680.28,469.67,663.16,469.67L663.16,469.67z"/>
	</g>
	<g>
		<circle class="st0" cx="663.16" cy="500.67" r="19.16"/>
		<path d="M663.16,482.02c10.29,0,18.66,8.37,18.66,18.66s-8.37,18.66-18.66,18.66s-18.66-8.37-18.66-18.66
			S652.87,482.02,663.16,482.02 M663.16,481.02c-10.86,0-19.66,8.8-19.66,19.66s8.8,19.66,19.66,19.66s19.66-8.8,19.66-19.66
			S674.01,481.02,663.16,481.02L663.16,481.02z"/>
	</g>
	<line class="st1" x1="676.66" y1="486.4" x2="682.82" y2="476.7"/>
	<line class="st1" x1="649.55" y1="487.15" x2="643.39" y2="477.46"/>
	<line class="st1" x1="676.66" y1="514.51" x2="682.82" y2="524.2"/>
	<line class="st1" x1="649.55" y1="514.51" x2="643.39" y2="524.2"/>
</g>
<g>
	<g>
		<circle class="st0" cx="231.66" cy="707.67" r="30.5"/>
		<path d="M231.66,677.67c16.54,0,30,13.46,30,30s-13.46,30-30,30s-30-13.46-30-30S215.12,677.67,231.66,677.67 M231.66,676.67
			c-17.12,0-31,13.88-31,31c0,17.12,13.88,31,31,31s31-13.88,31-31C262.66,690.55,248.78,676.67,231.66,676.67L231.66,676.67z"/>
	</g>
	<g>
		<circle class="st0" cx="231.66" cy="707.67" r="19.16"/>
		<path d="M231.66,689.02c10.29,0,18.66,8.37,18.66,18.66c0,10.29-8.37,18.66-18.66,18.66S213,717.96,213,707.67
			C213,697.39,221.37,689.02,231.66,689.02 M231.66,688.02c-10.86,0-19.66,8.8-19.66,19.66s8.8,19.66,19.66,19.66
			s19.66-8.8,19.66-19.66S242.51,688.02,231.66,688.02L231.66,688.02z"/>
	</g>
	<line class="st1" x1="245.16" y1="693.4" x2="251.32" y2="683.7"/>
	<line class="st1" x1="218.05" y1="694.15" x2="211.89" y2="684.46"/>
	<line class="st1" x1="245.16" y1="721.51" x2="251.32" y2="731.2"/>
	<line class="st1" x1="218.05" y1="721.51" x2="211.89" y2="731.2"/>
</g>
<g>
	<g>
		<circle class="st0" cx="123.66" cy="707.67" r="30.5"/>
		<path d="M123.66,677.67c16.54,0,30,13.46,30,30s-13.46,30-30,30s-30-13.46-30-30S107.12,677.67,123.66,677.67 M123.66,676.67
			c-17.12,0-31,13.88-31,31c0,17.12,13.88,31,31,31s31-13.88,31-31C154.66,690.55,140.78,676.67,123.66,676.67L123.66,676.67z"/>
	</g>
	<g>
		<circle class="st0" cx="123.66" cy="707.67" r="19.16"/>
		<path d="M123.66,689.02c10.29,0,18.66,8.37,18.66,18.66c0,10.29-8.37,18.66-18.66,18.66S105,717.96,105,707.67
			C105,697.39,113.37,689.02,123.66,689.02 M123.66,688.02c-10.86,0-19.66,8.8-19.66,19.66s8.8,19.66,19.66,19.66
			s19.66-8.8,19.66-19.66S134.51,688.02,123.66,688.02L123.66,688.02z"/>
	</g>
	<line class="st1" x1="137.16" y1="693.4" x2="143.32" y2="683.7"/>
	<line class="st1" x1="110.05" y1="694.15" x2="103.89" y2="684.46"/>
	<line class="st1" x1="137.16" y1="721.51" x2="143.32" y2="731.2"/>
	<line class="st1" x1="110.05" y1="721.51" x2="103.89" y2="731.2"/>
</g>
<g>
	<g>
		<circle class="st0" cx="15.66" cy="707.67" r="30.5"/>
		<path d="M15.66,677.67c16.54,0,30,13.46,30,30s-13.46,30-30,30s-30-13.46-30-30S-0.88,677.67,15.66,677.67 M15.66,676.67
			c-17.12,0-31,13.88-31,31c0,17.12,13.88,31,31,31s31-13.88,31-31C46.66,690.55,32.78,676.67,15.66,676.67L15.66,676.67z"/>
	</g>
	<g>
		<circle class="st0" cx="15.66" cy="707.67" r="19.16"/>
		<path d="M15.66,689.02c10.29,0,18.66,8.37,18.66,18.66c0,10.29-8.37,18.66-18.66,18.66S-3,717.96-3,707.67
			C-3,697.39,5.37,689.02,15.66,689.02 M15.66,688.02C4.8,688.02-4,696.82-4,707.67s8.8,19.66,19.66,19.66s19.66-8.8,19.66-19.66
			S26.51,688.02,15.66,688.02L15.66,688.02z"/>
	</g>
	<line class="st1" x1="29.16" y1="693.4" x2="35.32" y2="683.7"/>
	<line class="st1" x1="2.05" y1="694.15" x2="-4.11" y2="684.46"/>
	<line class="st1" x1="29.16" y1="721.51" x2="35.32" y2="731.2"/>
	<line class="st1" x1="2.05" y1="721.51" x2="-4.11" y2="731.2"/>
</g>
<g>
	<g>
		<circle class="st0" cx="-92.34" cy="707.67" r="30.5"/>
		<path d="M-92.34,677.67c16.54,0,30,13.46,30,30s-13.46,30-30,30s-30-13.46-30-30S-108.88,677.67-92.34,677.67 M-92.34,676.67
			c-17.12,0-31,13.88-31,31c0,17.12,13.88,31,31,31s31-13.88,31-31C-61.34,690.55-75.22,676.67-92.34,676.67L-92.34,676.67z"/>
	</g>
	<g>
		<circle class="st0" cx="-92.34" cy="707.67" r="19.16"/>
		<path d="M-92.34,689.02c10.29,0,18.66,8.37,18.66,18.66c0,10.29-8.37,18.66-18.66,18.66S-111,717.96-111,707.67
			C-111,697.39-102.63,689.02-92.34,689.02 M-92.34,688.02c-10.86,0-19.66,8.8-19.66,19.66s8.8,19.66,19.66,19.66
			s19.66-8.8,19.66-19.66S-81.49,688.02-92.34,688.02L-92.34,688.02z"/>
	</g>
	<line class="st1" x1="-78.84" y1="693.4" x2="-72.68" y2="683.7"/>
	<line class="st1" x1="-105.95" y1="694.15" x2="-112.11" y2="684.46"/>
	<line class="st1" x1="-78.84" y1="721.51" x2="-72.68" y2="731.2"/>
	<line class="st1" x1="-105.95" y1="721.51" x2="-112.11" y2="731.2"/>
</g>
<g>
	<g>
		<circle class="st0" cx="339.66" cy="707.67" r="30.5"/>
		<path d="M339.66,677.67c16.54,0,30,13.46,30,30s-13.46,30-30,30s-30-13.46-30-30S323.12,677.67,339.66,677.67 M339.66,676.67
			c-17.12,0-31,13.88-31,31c0,17.12,13.88,31,31,31s31-13.88,31-31C370.66,690.55,356.78,676.67,339.66,676.67L339.66,676.67z"/>
	</g>
	<g>
		<circle class="st0" cx="339.66" cy="707.67" r="19.16"/>
		<path d="M339.66,689.02c10.29,0,18.66,8.37,18.66,18.66c0,10.29-8.37,18.66-18.66,18.66S321,717.96,321,707.67
			C321,697.39,329.37,689.02,339.66,689.02 M339.66,688.02c-10.86,0-19.66,8.8-19.66,19.66s8.8,19.66,19.66,19.66
			s19.66-8.8,19.66-19.66S350.51,688.02,339.66,688.02L339.66,688.02z"/>
	</g>
	<line class="st1" x1="353.16" y1="693.4" x2="359.32" y2="683.7"/>
	<line class="st1" x1="326.05" y1="694.15" x2="319.89" y2="684.46"/>
	<line class="st1" x1="353.16" y1="721.51" x2="359.32" y2="731.2"/>
	<line class="st1" x1="326.05" y1="721.51" x2="319.89" y2="731.2"/>
</g>
<g>
	<g>
		<circle class="st0" cx="447.66" cy="707.67" r="30.5"/>
		<path d="M447.66,677.67c16.54,0,30,13.46,30,30s-13.46,30-30,30s-30-13.46-30-30S431.12,677.67,447.66,677.67 M447.66,676.67
			c-17.12,0-31,13.88-31,31c0,17.12,13.88,31,31,31s31-13.88,31-31C478.66,690.55,464.78,676.67,447.66,676.67L447.66,676.67z"/>
	</g>
	<g>
		<circle class="st0" cx="447.66" cy="707.67" r="19.16"/>
		<path d="M447.66,689.02c10.29,0,18.66,8.37,18.66,18.66c0,10.29-8.37,18.66-18.66,18.66S429,717.96,429,707.67
			C429,697.39,437.37,689.02,447.66,689.02 M447.66,688.02c-10.86,0-19.66,8.8-19.66,19.66s8.8,19.66,19.66,19.66
			s19.66-8.8,19.66-19.66S458.51,688.02,447.66,688.02L447.66,688.02z"/>
	</g>
	<line class="st1" x1="461.16" y1="693.4" x2="467.32" y2="683.7"/>
	<line class="st1" x1="434.05" y1="694.15" x2="427.89" y2="684.46"/>
	<line class="st1" x1="461.16" y1="721.51" x2="467.32" y2="731.2"/>
	<line class="st1" x1="434.05" y1="721.51" x2="427.89" y2="731.2"/>
</g>
<g>
	<g>
		<circle class="st0" cx="555.66" cy="707.67" r="30.5"/>
		<path d="M555.66,677.67c16.54,0,30,13.46,30,30s-13.46,30-30,30s-30-13.46-30-30S539.12,677.67,555.66,677.67 M555.66,676.67
			c-17.12,0-31,13.88-31,31c0,17.12,13.88,31,31,31s31-13.88,31-31C586.66,690.55,572.78,676.67,555.66,676.67L555.66,676.67z"/>
	</g>
	<g>
		<circle class="st0" cx="555.66" cy="707.67" r="19.16"/>
		<path d="M555.66,689.02c10.29,0,18.66,8.37,18.66,18.66c0,10.29-8.37,18.66-18.66,18.66S537,717.96,537,707.67
			C537,697.39,545.37,689.02,555.66,689.02 M555.66,688.02c-10.86,0-19.66,8.8-19.66,19.66s8.8,19.66,19.66,19.66
			s19.66-8.8,19.66-19.66S566.51,688.02,555.66,688.02L555.66,688.02z"/>
	</g>
	<line class="st1" x1="569.16" y1="693.4" x2="575.32" y2="683.7"/>
	<line class="st1" x1="542.05" y1="694.15" x2="535.89" y2="684.46"/>
	<line class="st1" x1="569.16" y1="721.51" x2="575.32" y2="731.2"/>
	<line class="st1" x1="542.05" y1="721.51" x2="535.89" y2="731.2"/>
</g>
<g>
	<g>
		<circle class="st0" cx="663.66" cy="707.67" r="30.5"/>
		<path d="M663.66,677.67c16.54,0,30,13.46,30,30s-13.46,30-30,30s-30-13.46-30-30S647.12,677.67,663.66,677.67 M663.66,676.67
			c-17.12,0-31,13.88-31,31c0,17.12,13.88,31,31,31s31-13.88,31-31C694.66,690.55,680.78,676.67,663.66,676.67L663.66,676.67z"/>
	</g>
	<g>
		<circle class="st0" cx="663.66" cy="707.67" r="19.16"/>
		<path d="M663.66,689.02c10.29,0,18.66,8.37,18.66,18.66c0,10.29-8.37,18.66-18.66,18.66S645,717.96,645,707.67
			C645,697.39,653.37,689.02,663.66,689.02 M663.66,688.02c-10.86,0-19.66,8.8-19.66,19.66s8.8,19.66,19.66,19.66
			s19.66-8.8,19.66-19.66S674.51,688.02,663.66,688.02L663.66,688.02z"/>
	</g>
	<line class="st1" x1="677.16" y1="693.4" x2="683.32" y2="683.7"/>
	<line class="st1" x1="650.05" y1="694.15" x2="643.89" y2="684.46"/>
	<line class="st1" x1="677.16" y1="721.51" x2="683.32" y2="731.2"/>
	<line class="st1" x1="650.05" y1="721.51" x2="643.89" y2="731.2"/>
</g>
<g>
	<g>
		<circle class="st0" cx="1105.16" cy="707.67" r="30.5"/>
		<path d="M1105.16,677.67c16.54,0,30,13.46,30,30s-13.46,30-30,30s-30-13.46-30-30S1088.62,677.67,1105.16,677.67 M1105.16,676.67
			c-17.12,0-31,13.88-31,31c0,17.12,13.88,31,31,31s31-13.88,31-31C1136.16,690.55,1122.28,676.67,1105.16,676.67L1105.16,676.67z"
			/>
	</g>
	<g>
		<circle class="st0" cx="1105.16" cy="707.67" r="19.16"/>
		<path d="M1105.16,689.02c10.29,0,18.66,8.37,18.66,18.66c0,10.29-8.37,18.66-18.66,18.66s-18.66-8.37-18.66-18.66
			C1086.5,697.39,1094.87,689.02,1105.16,689.02 M1105.16,688.02c-10.86,0-19.66,8.8-19.66,19.66s8.8,19.66,19.66,19.66
			s19.66-8.8,19.66-19.66S1116.01,688.02,1105.16,688.02L1105.16,688.02z"/>
	</g>
	<line class="st1" x1="1118.66" y1="693.4" x2="1124.82" y2="683.7"/>
	<line class="st1" x1="1091.55" y1="694.15" x2="1085.39" y2="684.46"/>
	<line class="st1" x1="1118.66" y1="721.51" x2="1124.82" y2="731.2"/>
	<line class="st1" x1="1091.55" y1="721.51" x2="1085.39" y2="731.2"/>
</g>
<g>
	<g>
		<circle class="st0" cx="997.16" cy="707.67" r="30.5"/>
		<path d="M997.16,677.67c16.54,0,30,13.46,30,30s-13.46,30-30,30s-30-13.46-30-30S980.62,677.67,997.16,677.67 M997.16,676.67
			c-17.12,0-31,13.88-31,31c0,17.12,13.88,31,31,31s31-13.88,31-31C1028.16,690.55,1014.28,676.67,997.16,676.67L997.16,676.67z"/>
	</g>
	<g>
		<circle class="st0" cx="997.16" cy="707.67" r="19.16"/>
		<path d="M997.16,689.02c10.29,0,18.66,8.37,18.66,18.66c0,10.29-8.37,18.66-18.66,18.66s-18.66-8.37-18.66-18.66
			C978.5,697.39,986.87,689.02,997.16,689.02 M997.16,688.02c-10.86,0-19.66,8.8-19.66,19.66s8.8,19.66,19.66,19.66
			s19.66-8.8,19.66-19.66S1008.01,688.02,997.16,688.02L997.16,688.02z"/>
	</g>
	<line class="st1" x1="1010.66" y1="693.4" x2="1016.82" y2="683.7"/>
	<line class="st1" x1="983.55" y1="694.15" x2="977.39" y2="684.46"/>
	<line class="st1" x1="1010.66" y1="721.51" x2="1016.82" y2="731.2"/>
	<line class="st1" x1="983.55" y1="721.51" x2="977.39" y2="731.2"/>
</g>
<g>
	<g>
		<circle class="st0" cx="889.16" cy="707.67" r="30.5"/>
		<path d="M889.16,677.67c16.54,0,30,13.46,30,30s-13.46,30-30,30s-30-13.46-30-30S872.62,677.67,889.16,677.67 M889.16,676.67
			c-17.12,0-31,13.88-31,31c0,17.12,13.88,31,31,31s31-13.88,31-31C920.16,690.55,906.28,676.67,889.16,676.67L889.16,676.67z"/>
	</g>
	<g>
		<circle class="st0" cx="889.16" cy="707.67" r="19.16"/>
		<path d="M889.16,689.02c10.29,0,18.66,8.37,18.66,18.66c0,10.29-8.37,18.66-18.66,18.66s-18.66-8.37-18.66-18.66
			C870.5,697.39,878.87,689.02,889.16,689.02 M889.16,688.02c-10.86,0-19.66,8.8-19.66,19.66s8.8,19.66,19.66,19.66
			s19.66-8.8,19.66-19.66S900.01,688.02,889.16,688.02L889.16,688.02z"/>
	</g>
	<line class="st1" x1="902.66" y1="693.4" x2="908.82" y2="683.7"/>
	<line class="st1" x1="875.55" y1="694.15" x2="869.39" y2="684.46"/>
	<line class="st1" x1="902.66" y1="721.51" x2="908.82" y2="731.2"/>
	<line class="st1" x1="875.55" y1="721.51" x2="869.39" y2="731.2"/>
</g>
<g>
	<g>
		<circle class="st0" cx="781.16" cy="707.67" r="30.5"/>
		<path d="M781.16,677.67c16.54,0,30,13.46,30,30s-13.46,30-30,30s-30-13.46-30-30S764.62,677.67,781.16,677.67 M781.16,676.67
			c-17.12,0-31,13.88-31,31c0,17.12,13.88,31,31,31s31-13.88,31-31C812.16,690.55,798.28,676.67,781.16,676.67L781.16,676.67z"/>
	</g>
	<g>
		<circle class="st0" cx="781.16" cy="707.67" r="19.16"/>
		<path d="M781.16,689.02c10.29,0,18.66,8.37,18.66,18.66c0,10.29-8.37,18.66-18.66,18.66s-18.66-8.37-18.66-18.66
			C762.5,697.39,770.87,689.02,781.16,689.02 M781.16,688.02c-10.86,0-19.66,8.8-19.66,19.66s8.8,19.66,19.66,19.66
			s19.66-8.8,19.66-19.66S792.01,688.02,781.16,688.02L781.16,688.02z"/>
	</g>
	<line class="st1" x1="794.66" y1="693.4" x2="800.82" y2="683.7"/>
	<line class="st1" x1="767.55" y1="694.15" x2="761.39" y2="684.46"/>
	<line class="st1" x1="794.66" y1="721.51" x2="800.82" y2="731.2"/>
	<line class="st1" x1="767.55" y1="721.51" x2="761.39" y2="731.2"/>
</g>
<g>
	<g>
		<circle class="st0" cx="1213.16" cy="707.67" r="30.5"/>
		<path d="M1213.16,677.67c16.54,0,30,13.46,30,30s-13.46,30-30,30s-30-13.46-30-30S1196.62,677.67,1213.16,677.67 M1213.16,676.67
			c-17.12,0-31,13.88-31,31c0,17.12,13.88,31,31,31s31-13.88,31-31C1244.16,690.55,1230.28,676.67,1213.16,676.67L1213.16,676.67z"
			/>
	</g>
	<g>
		<circle class="st0" cx="1213.16" cy="707.67" r="19.16"/>
		<path d="M1213.16,689.02c10.29,0,18.66,8.37,18.66,18.66c0,10.29-8.37,18.66-18.66,18.66s-18.66-8.37-18.66-18.66
			C1194.5,697.39,1202.87,689.02,1213.16,689.02 M1213.16,688.02c-10.86,0-19.66,8.8-19.66,19.66s8.8,19.66,19.66,19.66
			s19.66-8.8,19.66-19.66S1224.01,688.02,1213.16,688.02L1213.16,688.02z"/>
	</g>
	<line class="st1" x1="1226.66" y1="693.4" x2="1232.82" y2="683.7"/>
	<line class="st1" x1="1199.55" y1="694.15" x2="1193.39" y2="684.46"/>
	<line class="st1" x1="1226.66" y1="721.51" x2="1232.82" y2="731.2"/>
	<line class="st1" x1="1199.55" y1="721.51" x2="1193.39" y2="731.2"/>
</g>
<g>
	<g>
		<circle class="st0" cx="1321.16" cy="707.67" r="30.5"/>
		<path d="M1321.16,677.67c16.54,0,30,13.46,30,30s-13.46,30-30,30s-30-13.46-30-30S1304.62,677.67,1321.16,677.67 M1321.16,676.67
			c-17.12,0-31,13.88-31,31c0,17.12,13.88,31,31,31s31-13.88,31-31C1352.16,690.55,1338.28,676.67,1321.16,676.67L1321.16,676.67z"
			/>
	</g>
	<g>
		<circle class="st0" cx="1321.16" cy="707.67" r="19.16"/>
		<path d="M1321.16,689.02c10.29,0,18.66,8.37,18.66,18.66c0,10.29-8.37,18.66-18.66,18.66s-18.66-8.37-18.66-18.66
			C1302.5,697.39,1310.87,689.02,1321.16,689.02 M1321.16,688.02c-10.86,0-19.66,8.8-19.66,19.66s8.8,19.66,19.66,19.66
			s19.66-8.8,19.66-19.66S1332.01,688.02,1321.16,688.02L1321.16,688.02z"/>
	</g>
	<line class="st1" x1="1334.66" y1="693.4" x2="1340.82" y2="683.7"/>
	<line class="st1" x1="1307.55" y1="694.15" x2="1301.39" y2="684.46"/>
	<line class="st1" x1="1334.66" y1="721.51" x2="1340.82" y2="731.2"/>
	<line class="st1" x1="1307.55" y1="721.51" x2="1301.39" y2="731.2"/>
</g>
<g>
	<g>
		<circle class="st0" cx="1429.16" cy="707.67" r="30.5"/>
		<path d="M1429.16,677.67c16.54,0,30,13.46,30,30s-13.46,30-30,30s-30-13.46-30-30S1412.62,677.67,1429.16,677.67 M1429.16,676.67
			c-17.12,0-31,13.88-31,31c0,17.12,13.88,31,31,31s31-13.88,31-31C1460.16,690.55,1446.28,676.67,1429.16,676.67L1429.16,676.67z"
			/>
	</g>
	<g>
		<circle class="st0" cx="1429.16" cy="707.67" r="19.16"/>
		<path d="M1429.16,689.02c10.29,0,18.66,8.37,18.66,18.66c0,10.29-8.37,18.66-18.66,18.66s-18.66-8.37-18.66-18.66
			C1410.5,697.39,1418.87,689.02,1429.16,689.02 M1429.16,688.02c-10.86,0-19.66,8.8-19.66,19.66s8.8,19.66,19.66,19.66
			s19.66-8.8,19.66-19.66S1440.01,688.02,1429.16,688.02L1429.16,688.02z"/>
	</g>
	<line class="st1" x1="1442.66" y1="693.4" x2="1448.82" y2="683.7"/>
	<line class="st1" x1="1415.55" y1="694.15" x2="1409.39" y2="684.46"/>
	<line class="st1" x1="1442.66" y1="721.51" x2="1448.82" y2="731.2"/>
	<line class="st1" x1="1415.55" y1="721.51" x2="1409.39" y2="731.2"/>
</g>
<g>
	<g>
		<circle class="st0" cx="1537.16" cy="707.67" r="30.5"/>
		<path d="M1537.16,677.67c16.54,0,30,13.46,30,30s-13.46,30-30,30s-30-13.46-30-30S1520.62,677.67,1537.16,677.67 M1537.16,676.67
			c-17.12,0-31,13.88-31,31c0,17.12,13.88,31,31,31s31-13.88,31-31C1568.16,690.55,1554.28,676.67,1537.16,676.67L1537.16,676.67z"
			/>
	</g>
	<g>
		<circle class="st0" cx="1537.16" cy="707.67" r="19.16"/>
		<path d="M1537.16,689.02c10.29,0,18.66,8.37,18.66,18.66c0,10.29-8.37,18.66-18.66,18.66s-18.66-8.37-18.66-18.66
			C1518.5,697.39,1526.87,689.02,1537.16,689.02 M1537.16,688.02c-10.86,0-19.66,8.8-19.66,19.66s8.8,19.66,19.66,19.66
			s19.66-8.8,19.66-19.66S1548.01,688.02,1537.16,688.02L1537.16,688.02z"/>
	</g>
	<line class="st1" x1="1550.66" y1="693.4" x2="1556.82" y2="683.7"/>
	<line class="st1" x1="1523.55" y1="694.15" x2="1517.39" y2="684.46"/>
	<line class="st1" x1="1550.66" y1="721.51" x2="1556.82" y2="731.2"/>
	<line class="st1" x1="1523.55" y1="721.51" x2="1517.39" y2="731.2"/>
</g>
<rect x="178.66" y="389.17" class="st1" width="107" height="52"/>
<rect x="286.66" y="389.17" class="st1" width="107" height="52"/>
<rect x="394.66" y="389.17" class="st1" width="107" height="52"/>
<rect x="502.66" y="389.17" class="st1" width="107" height="52"/>
<rect x="610.66" y="389.17" class="st1" width="107" height="52"/>
<rect x="178.66" y="339.17" class="st1" width="107" height="52"/>
<rect x="286.66" y="339.17" class="st1" width="107" height="52"/>
<rect x="394.66" y="339.17" class="st1" width="107" height="52"/>
<rect x="502.66" y="339.17" class="st1" width="107" height="52"/>
<rect x="610.66" y="339.17" class="st1" width="107" height="52"/>
<rect x="178.66" y="592.17" class="st1" width="107" height="52"/>
<rect x="286.66" y="592.17" class="st1" width="107" height="52"/>
<rect x="394.66" y="592.17" class="st1" width="107" height="52"/>
<rect x="502.66" y="592.17" class="st1" width="107" height="52"/>
<rect x="610.66" y="592.17" class="st1" width="107" height="52"/>
<rect x="178.66" y="542.17" class="st1" width="107" height="52"/>
<rect x="286.66" y="542.17" class="st1" width="107" height="52"/>
<rect x="394.66" y="542.17" class="st1" width="107" height="52"/>
<rect x="-145.34" y="592.17" class="st1" width="107" height="52"/>
<rect x="-37.34" y="592.17" class="st1" width="107" height="52"/>
<rect x="70.66" y="592.17" class="st1" width="107" height="52"/>
<rect x="-145.34" y="542.17" class="st1" width="107" height="52"/>
<rect x="-37.34" y="542.17" class="st1" width="107" height="52"/>
<rect x="70.66" y="542.17" class="st1" width="107" height="52"/>
<rect x="502.66" y="542.17" class="st1" width="107" height="52"/>
<rect x="610.66" y="542.17" class="st1" width="107" height="52"/>
<rect x="1050.66" y="592.17" class="st1" width="107" height="52"/>
<rect x="1158.66" y="592.17" class="st1" width="107" height="52"/>
<rect x="1266.66" y="592.17" class="st1" width="107" height="52"/>
<rect x="1374.66" y="592.17" class="st1" width="107" height="52"/>
<rect x="1482.66" y="592.17" class="st1" width="107" height="52"/>
<rect x="1050.66" y="542.17" class="st1" width="107" height="52"/>
<rect x="1158.66" y="542.17" class="st1" width="107" height="52"/>
<rect x="1266.66" y="542.17" class="st1" width="107" height="52"/>
<rect x="726.66" y="592.17" class="st1" width="107" height="52"/>
<rect x="834.66" y="592.17" class="st1" width="107" height="52"/>
<rect x="942.66" y="592.17" class="st1" width="107" height="52"/>
<rect x="726.66" y="542.17" class="st1" width="107" height="52"/>
<rect x="834.66" y="542.17" class="st1" width="107" height="52"/>
<rect x="942.66" y="542.17" class="st1" width="107" height="52"/>
<rect x="1374.66" y="542.17" class="st1" width="107" height="52"/>
<rect x="1482.66" y="542.17" class="st1" width="107" height="52"/>
<g>
	<g>
		<circle class="st0" cx="781.16" cy="500.67" r="30.5"/>
		<path d="M781.16,470.67c16.54,0,30,13.46,30,30c0,16.54-13.46,30-30,30s-30-13.46-30-30
			C751.16,484.13,764.62,470.67,781.16,470.67 M781.16,469.67c-17.12,0-31,13.88-31,31c0,17.12,13.88,31,31,31s31-13.88,31-31
			C812.16,483.55,798.28,469.67,781.16,469.67L781.16,469.67z"/>
	</g>
	<g>
		<circle class="st0" cx="781.16" cy="500.67" r="19.16"/>
		<path d="M781.16,482.02c10.29,0,18.66,8.37,18.66,18.66c0,10.29-8.37,18.66-18.66,18.66s-18.66-8.37-18.66-18.66
			C762.5,490.39,770.87,482.02,781.16,482.02 M781.16,481.02c-10.86,0-19.66,8.8-19.66,19.66s8.8,19.66,19.66,19.66
			s19.66-8.8,19.66-19.66S792.01,481.02,781.16,481.02L781.16,481.02z"/>
	</g>
	<line class="st1" x1="794.66" y1="486.4" x2="800.82" y2="476.7"/>
	<line class="st1" x1="767.55" y1="487.15" x2="761.39" y2="477.46"/>
	<line class="st1" x1="794.66" y1="514.51" x2="800.82" y2="524.2"/>
	<line class="st1" x1="767.55" y1="514.51" x2="761.39" y2="524.2"/>
</g>
<g>
	<g>
		<circle class="st0" cx="889.16" cy="500.67" r="30.5"/>
		<path d="M889.16,470.67c16.54,0,30,13.46,30,30c0,16.54-13.46,30-30,30s-30-13.46-30-30
			C859.16,484.13,872.62,470.67,889.16,470.67 M889.16,469.67c-17.12,0-31,13.88-31,31c0,17.12,13.88,31,31,31s31-13.88,31-31
			C920.16,483.55,906.28,469.67,889.16,469.67L889.16,469.67z"/>
	</g>
	<g>
		<circle class="st0" cx="889.16" cy="500.67" r="19.16"/>
		<path d="M889.16,482.02c10.29,0,18.66,8.37,18.66,18.66c0,10.29-8.37,18.66-18.66,18.66s-18.66-8.37-18.66-18.66
			C870.5,490.39,878.87,482.02,889.16,482.02 M889.16,481.02c-10.86,0-19.66,8.8-19.66,19.66s8.8,19.66,19.66,19.66
			s19.66-8.8,19.66-19.66S900.01,481.02,889.16,481.02L889.16,481.02z"/>
	</g>
	<line class="st1" x1="902.66" y1="486.4" x2="908.82" y2="476.7"/>
	<line class="st1" x1="875.55" y1="487.15" x2="869.39" y2="477.46"/>
	<line class="st1" x1="902.66" y1="514.51" x2="908.82" y2="524.2"/>
	<line class="st1" x1="875.55" y1="514.51" x2="869.39" y2="524.2"/>
</g>
<g>
	<g>
		<circle class="st0" cx="997.16" cy="500.67" r="30.5"/>
		<path d="M997.16,470.67c16.54,0,30,13.46,30,30c0,16.54-13.46,30-30,30s-30-13.46-30-30
			C967.16,484.13,980.62,470.67,997.16,470.67 M997.16,469.67c-17.12,0-31,13.88-31,31c0,17.12,13.88,31,31,31s31-13.88,31-31
			C1028.16,483.55,1014.28,469.67,997.16,469.67L997.16,469.67z"/>
	</g>
	<g>
		<circle class="st0" cx="997.16" cy="500.67" r="19.16"/>
		<path d="M997.16,482.02c10.29,0,18.66,8.37,18.66,18.66c0,10.29-8.37,18.66-18.66,18.66s-18.66-8.37-18.66-18.66
			C978.5,490.39,986.87,482.02,997.16,482.02 M997.16,481.02c-10.86,0-19.66,8.8-19.66,19.66s8.8,19.66,19.66,19.66
			s19.66-8.8,19.66-19.66S1008.01,481.02,997.16,481.02L997.16,481.02z"/>
	</g>
	<line class="st1" x1="1010.66" y1="486.4" x2="1016.82" y2="476.7"/>
	<line class="st1" x1="983.55" y1="487.15" x2="977.39" y2="477.46"/>
	<line class="st1" x1="1010.66" y1="514.51" x2="1016.82" y2="524.2"/>
	<line class="st1" x1="983.55" y1="514.51" x2="977.39" y2="524.2"/>
</g>
<g>
	<g>
		<circle class="st0" cx="1105.16" cy="500.67" r="30.5"/>
		<path d="M1105.16,470.67c16.54,0,30,13.46,30,30c0,16.54-13.46,30-30,30s-30-13.46-30-30
			C1075.16,484.13,1088.62,470.67,1105.16,470.67 M1105.16,469.67c-17.12,0-31,13.88-31,31c0,17.12,13.88,31,31,31s31-13.88,31-31
			C1136.16,483.55,1122.28,469.67,1105.16,469.67L1105.16,469.67z"/>
	</g>
	<g>
		<circle class="st0" cx="1105.16" cy="500.67" r="19.16"/>
		<path d="M1105.16,482.02c10.29,0,18.66,8.37,18.66,18.66c0,10.29-8.37,18.66-18.66,18.66s-18.66-8.37-18.66-18.66
			C1086.5,490.39,1094.87,482.02,1105.16,482.02 M1105.16,481.02c-10.86,0-19.66,8.8-19.66,19.66s8.8,19.66,19.66,19.66
			s19.66-8.8,19.66-19.66S1116.01,481.02,1105.16,481.02L1105.16,481.02z"/>
	</g>
	<line class="st1" x1="1118.66" y1="486.4" x2="1124.82" y2="476.7"/>
	<line class="st1" x1="1091.55" y1="487.15" x2="1085.39" y2="477.46"/>
	<line class="st1" x1="1118.66" y1="514.51" x2="1124.82" y2="524.2"/>
	<line class="st1" x1="1091.55" y1="514.51" x2="1085.39" y2="524.2"/>
</g>
<g>
	<g>
		<circle class="st0" cx="1213.16" cy="500.67" r="30.5"/>
		<path d="M1213.16,470.67c16.54,0,30,13.46,30,30c0,16.54-13.46,30-30,30s-30-13.46-30-30
			C1183.16,484.13,1196.62,470.67,1213.16,470.67 M1213.16,469.67c-17.12,0-31,13.88-31,31c0,17.12,13.88,31,31,31s31-13.88,31-31
			C1244.16,483.55,1230.28,469.67,1213.16,469.67L1213.16,469.67z"/>
	</g>
	<g>
		<circle class="st0" cx="1213.16" cy="500.67" r="19.16"/>
		<path d="M1213.16,482.02c10.29,0,18.66,8.37,18.66,18.66c0,10.29-8.37,18.66-18.66,18.66s-18.66-8.37-18.66-18.66
			C1194.5,490.39,1202.87,482.02,1213.16,482.02 M1213.16,481.02c-10.86,0-19.66,8.8-19.66,19.66s8.8,19.66,19.66,19.66
			s19.66-8.8,19.66-19.66S1224.01,481.02,1213.16,481.02L1213.16,481.02z"/>
	</g>
	<line class="st1" x1="1226.66" y1="486.4" x2="1232.82" y2="476.7"/>
	<line class="st1" x1="1199.55" y1="487.15" x2="1193.39" y2="477.46"/>
	<line class="st1" x1="1226.66" y1="514.51" x2="1232.82" y2="524.2"/>
	<line class="st1" x1="1199.55" y1="514.51" x2="1193.39" y2="524.2"/>
</g>
<rect x="726.66" y="389.17" class="st1" width="107" height="52"/>
<rect x="834.66" y="389.17" class="st1" width="107" height="52"/>
<rect x="942.66" y="389.17" class="st1" width="107" height="52"/>
<rect x="1050.66" y="389.17" class="st1" width="107" height="52"/>
<rect x="1158.66" y="389.17" class="st1" width="107" height="52"/>
<rect x="726.66" y="339.17" class="st1" width="107" height="52"/>
<rect x="834.66" y="339.17" class="st1" width="107" height="52"/>
<rect x="942.66" y="339.17" class="st1" width="107" height="52"/>
<rect x="1050.66" y="339.17" class="st1" width="107" height="52"/>
<rect x="1158.66" y="339.17" class="st1" width="107" height="52"/>
<line class="st2" x1="722.16" y1="338.67" x2="722.16" y2="1234.18"/>
<line class="st2" x1="-145.34" y1="788.67" x2="1589.66" y2="788.67"/>
<text transform="matrix(1 0 0 1 217.5841 464.1122)" style="font-family:'ArialMT'; font-size:24px;">55</text>
<text transform="matrix(1 0 0 1 326.5841 464.1122)" style="font-family:'ArialMT'; font-size:24px;">54</text>
<text transform="matrix(1 0 0 1 435.5841 464.1122)" style="font-family:'ArialMT'; font-size:24px;">53</text>
<text transform="matrix(1 0 0 1 541.584 464.1122)" style="font-family:'ArialMT'; font-size:24px;">52</text>
<text transform="matrix(1 0 0 1 649.584 464.1122)" style="font-family:'ArialMT'; font-size:24px;">51</text>
<text transform="matrix(1 0 0 1 -106.9374 672.1121)" style="font-family:'ArialMT'; font-size:24px;">18</text>
<text transform="matrix(1 0 0 1 2.0476 672.1121)" style="font-family:'ArialMT'; font-size:24px;">17</text>
<text transform="matrix(1 0 0 1 109.0302 672.1121)" style="font-family:'ArialMT'; font-size:23.7px;">16</text>
<text transform="matrix(1 0 0 1 217.5841 672.1121)" style="font-family:'ArialMT'; font-size:24px;">15</text>
<text transform="matrix(1 0 0 1 325.0627 672.1121)" style="font-family:'ArialMT'; font-size:24px;">14</text>
<text transform="matrix(1 0 0 1 433.0627 672.1121)" style="font-family:'ArialMT'; font-size:24px;">13</text>
<text transform="matrix(1 0 0 1 542.0477 672.1121)" style="font-family:'ArialMT'; font-size:24px;">12</text>
<text transform="matrix(1 0 0 1 650.0475 672.1121)" style="font-family:'ArialMT'; font-size:24px;">11</text>
<text transform="matrix(1 0 0 1 -106.7082 920.5955)" style="font-family:'ArialMT'; font-size:24px;">48</text>
<text transform="matrix(1 0 0 1 2.2918 920.5955)" style="font-family:'ArialMT'; font-size:24px;">47</text>
<text transform="matrix(1 0 0 1 111.2918 920.5955)" style="font-family:'ArialMT'; font-size:24px;">46</text>
<text transform="matrix(1 0 0 1 217.2918 920.5955)" style="font-family:'ArialMT'; font-size:24px;">45</text>
<text transform="matrix(1 0 0 1 325.2918 920.5955)" style="font-family:'ArialMT'; font-size:24px;">44</text>
<text transform="matrix(1 0 0 1 433.2918 920.5955)" style="font-family:'ArialMT'; font-size:24px;">43</text>
<text transform="matrix(1 0 0 1 541.2917 920.5955)" style="font-family:'ArialMT'; font-size:24px;">42</text>
<text transform="matrix(1 0 0 1 649.2917 920.5955)" style="font-family:'ArialMT'; font-size:24px;">41</text>
<text transform="matrix(1 0 0 1 217.5797 1124.9668)" style="font-family:'ArialMT'; font-size:24px;">85</text>
<text transform="matrix(1 0 0 1 325.5476 1124.9668)" style="font-family:'ArialMT'; font-size:24px;">84</text>
<text transform="matrix(1 0 0 1 433.5155 1124.9668)" style="font-family:'ArialMT'; font-size:24px;">83</text>
<text transform="matrix(1 0 0 1 541.4834 1124.9668)" style="font-family:'ArialMT'; font-size:24px;">82</text>
<text transform="matrix(1 0 0 1 649.4513 1124.9668)" style="font-family:'ArialMT'; font-size:24px;">81</text>
<text transform="matrix(1 0 0 1 767.6119 1124.9666)" style="font-family:'ArialMT'; font-size:24px;">71</text>
<text transform="matrix(1 0 0 1 875.5798 1124.9666)" style="font-family:'ArialMT'; font-size:24px;">72</text>
<text transform="matrix(1 0 0 1 983.5477 1124.9666)" style="font-family:'ArialMT'; font-size:24px;">73</text>
<text transform="matrix(1 0 0 1 1091.5156 1124.9666)" style="font-family:'ArialMT'; font-size:24px;">74</text>
<text transform="matrix(1 0 0 1 1199.4835 1124.9666)" style="font-family:'ArialMT'; font-size:24px;">75</text>
<text transform="matrix(1 0 0 1 767.5477 920.8826)" style="font-family:'ArialMT'; font-size:24px;">31</text>
<text transform="matrix(1 0 0 1 875.5474 920.8821)" style="font-family:'ArialMT'; font-size:24px;">32</text>
<text transform="matrix(1 0 0 1 983.547 920.8817)" style="font-family:'ArialMT'; font-size:24px;">33</text>
<text transform="matrix(1 0 0 1 1091.5466 920.8812)" style="font-family:'ArialMT'; font-size:24px;">34</text>
<text transform="matrix(1 0 0 1 1199.5463 920.8807)" style="font-family:'ArialMT'; font-size:24px;">35</text>
<text transform="matrix(1 0 0 1 1307.5459 920.8802)" style="font-family:'ArialMT'; font-size:24px;">36</text>
<text transform="matrix(1 0 0 1 1415.5455 920.8797)" style="font-family:'ArialMT'; font-size:24px;">37</text>
<text transform="matrix(1 0 0 1 1523.5452 920.8792)" style="font-family:'ArialMT'; font-size:24px;">38</text>
<text transform="matrix(1 0 0 1 767.584 672.1121)" style="font-family:'ArialMT'; font-size:24px;">21</text>
<text transform="matrix(1 0 0 1 876.584 672.1121)" style="font-family:'ArialMT'; font-size:24px;">22</text>
<text transform="matrix(1 0 0 1 985.584 672.1121)" style="font-family:'ArialMT'; font-size:24px;">23</text>
<text transform="matrix(1 0 0 1 1091.5841 672.1121)" style="font-family:'ArialMT'; font-size:24px;">24</text>
<text transform="matrix(1 0 0 1 1199.5841 672.1121)" style="font-family:'ArialMT'; font-size:24px;">25</text>
<text transform="matrix(1 0 0 1 1307.5841 672.1121)" style="font-family:'ArialMT'; font-size:24px;">26</text>
<text transform="matrix(1 0 0 1 1415.5841 672.1121)" style="font-family:'ArialMT'; font-size:24px;">27</text>
<text transform="matrix(1 0 0 1 1523.5841 672.1121)" style="font-family:'ArialMT'; font-size:24px;">28</text>
<text transform="matrix(1 0 0 1 766.584 464.1122)" style="font-family:'ArialMT'; font-size:24px;">61</text>
<text transform="matrix(1 0 0 1 875.584 464.1122)" style="font-family:'ArialMT'; font-size:24px;">62</text>
<text transform="matrix(1 0 0 1 984.584 464.1122)" style="font-family:'ArialMT'; font-size:24px;">63</text>
<text transform="matrix(1 0 0 1 1090.5841 464.1122)" style="font-family:'ArialMT'; font-size:24px;">64</text>
<text transform="matrix(1 0 0 1 1198.5841 464.1122)" style="font-family:'ArialMT'; font-size:24px;">65</text>
<g>
	<g>
		<circle class="st0" cx="231.16" cy="1072.17" r="30.5"/>
		<path d="M231.16,1042.17c16.54,0,30,13.46,30,30c0,16.54-13.46,30-30,30s-30-13.46-30-30
			C201.16,1055.63,214.62,1042.17,231.16,1042.17 M231.16,1041.17c-17.12,0-31,13.88-31,31s13.88,31,31,31s31-13.88,31-31
			S248.28,1041.17,231.16,1041.17L231.16,1041.17z"/>
	</g>
	<g>
		<circle class="st0" cx="231.16" cy="1072.17" r="19.16"/>
		<path d="M231.16,1053.52c10.29,0,18.66,8.37,18.66,18.66s-8.37,18.66-18.66,18.66s-18.66-8.37-18.66-18.66
			S220.87,1053.52,231.16,1053.52 M231.16,1052.52c-10.86,0-19.66,8.8-19.66,19.66c0,10.86,8.8,19.66,19.66,19.66
			s19.66-8.8,19.66-19.66C250.82,1061.32,242.01,1052.52,231.16,1052.52L231.16,1052.52z"/>
	</g>
	<line class="st1" x1="244.66" y1="1086.45" x2="250.82" y2="1096.14"/>
	<line class="st1" x1="217.55" y1="1085.7" x2="211.39" y2="1095.39"/>
	<line class="st1" x1="244.66" y1="1058.34" x2="250.82" y2="1048.65"/>
	<line class="st1" x1="217.55" y1="1058.34" x2="211.39" y2="1048.65"/>
</g>
<g>
	<g>
		<circle class="st0" cx="339.16" cy="1072.17" r="30.5"/>
		<path d="M339.16,1042.17c16.54,0,30,13.46,30,30c0,16.54-13.46,30-30,30s-30-13.46-30-30
			C309.16,1055.63,322.62,1042.17,339.16,1042.17 M339.16,1041.17c-17.12,0-31,13.88-31,31s13.88,31,31,31s31-13.88,31-31
			S356.28,1041.17,339.16,1041.17L339.16,1041.17z"/>
	</g>
	<g>
		<circle class="st0" cx="339.16" cy="1072.17" r="19.16"/>
		<path d="M339.16,1053.52c10.29,0,18.66,8.37,18.66,18.66s-8.37,18.66-18.66,18.66s-18.66-8.37-18.66-18.66
			S328.87,1053.52,339.16,1053.52 M339.16,1052.52c-10.86,0-19.66,8.8-19.66,19.66c0,10.86,8.8,19.66,19.66,19.66
			s19.66-8.8,19.66-19.66C358.82,1061.32,350.01,1052.52,339.16,1052.52L339.16,1052.52z"/>
	</g>
	<line class="st1" x1="352.66" y1="1086.45" x2="358.82" y2="1096.14"/>
	<line class="st1" x1="325.55" y1="1085.7" x2="319.39" y2="1095.39"/>
	<line class="st1" x1="352.66" y1="1058.34" x2="358.82" y2="1048.65"/>
	<line class="st1" x1="325.55" y1="1058.34" x2="319.39" y2="1048.65"/>
</g>
<g>
	<g>
		<circle class="st0" cx="447.16" cy="1072.17" r="30.5"/>
		<path d="M447.16,1042.17c16.54,0,30,13.46,30,30c0,16.54-13.46,30-30,30s-30-13.46-30-30
			C417.16,1055.63,430.62,1042.17,447.16,1042.17 M447.16,1041.17c-17.12,0-31,13.88-31,31s13.88,31,31,31s31-13.88,31-31
			S464.28,1041.17,447.16,1041.17L447.16,1041.17z"/>
	</g>
	<g>
		<circle class="st0" cx="447.16" cy="1072.17" r="19.16"/>
		<path d="M447.16,1053.52c10.29,0,18.66,8.37,18.66,18.66s-8.37,18.66-18.66,18.66s-18.66-8.37-18.66-18.66
			S436.87,1053.52,447.16,1053.52 M447.16,1052.52c-10.86,0-19.66,8.8-19.66,19.66c0,10.86,8.8,19.66,19.66,19.66
			s19.66-8.8,19.66-19.66C466.82,1061.32,458.01,1052.52,447.16,1052.52L447.16,1052.52z"/>
	</g>
	<line class="st1" x1="460.66" y1="1086.45" x2="466.82" y2="1096.14"/>
	<line class="st1" x1="433.55" y1="1085.7" x2="427.39" y2="1095.39"/>
	<line class="st1" x1="460.66" y1="1058.34" x2="466.82" y2="1048.65"/>
	<line class="st1" x1="433.55" y1="1058.34" x2="427.39" y2="1048.65"/>
</g>
<g>
	<g>
		<circle class="st0" cx="555.16" cy="1072.17" r="30.5"/>
		<path d="M555.16,1042.17c16.54,0,30,13.46,30,30c0,16.54-13.46,30-30,30s-30-13.46-30-30
			C525.16,1055.63,538.62,1042.17,555.16,1042.17 M555.16,1041.17c-17.12,0-31,13.88-31,31s13.88,31,31,31s31-13.88,31-31
			S572.28,1041.17,555.16,1041.17L555.16,1041.17z"/>
	</g>
	<g>
		<circle class="st0" cx="555.16" cy="1072.17" r="19.16"/>
		<path d="M555.16,1053.52c10.29,0,18.66,8.37,18.66,18.66s-8.37,18.66-18.66,18.66s-18.66-8.37-18.66-18.66
			S544.87,1053.52,555.16,1053.52 M555.16,1052.52c-10.86,0-19.66,8.8-19.66,19.66c0,10.86,8.8,19.66,19.66,19.66
			s19.66-8.8,19.66-19.66C574.82,1061.32,566.01,1052.52,555.16,1052.52L555.16,1052.52z"/>
	</g>
	<line class="st1" x1="568.66" y1="1086.45" x2="574.82" y2="1096.14"/>
	<line class="st1" x1="541.55" y1="1085.7" x2="535.39" y2="1095.39"/>
	<line class="st1" x1="568.66" y1="1058.34" x2="574.82" y2="1048.65"/>
	<line class="st1" x1="541.55" y1="1058.34" x2="535.39" y2="1048.65"/>
</g>
<g>
	<g>
		<circle class="st0" cx="663.16" cy="1072.17" r="30.5"/>
		<path d="M663.16,1042.17c16.54,0,30,13.46,30,30c0,16.54-13.46,30-30,30s-30-13.46-30-30
			C633.16,1055.63,646.62,1042.17,663.16,1042.17 M663.16,1041.17c-17.12,0-31,13.88-31,31s13.88,31,31,31s31-13.88,31-31
			S680.28,1041.17,663.16,1041.17L663.16,1041.17z"/>
	</g>
	<g>
		<circle class="st0" cx="663.16" cy="1072.17" r="19.16"/>
		<path d="M663.16,1053.52c10.29,0,18.66,8.37,18.66,18.66s-8.37,18.66-18.66,18.66s-18.66-8.37-18.66-18.66
			S652.87,1053.52,663.16,1053.52 M663.16,1052.52c-10.86,0-19.66,8.8-19.66,19.66c0,10.86,8.8,19.66,19.66,19.66
			s19.66-8.8,19.66-19.66C682.82,1061.32,674.01,1052.52,663.16,1052.52L663.16,1052.52z"/>
	</g>
	<line class="st1" x1="676.66" y1="1086.45" x2="682.82" y2="1096.14"/>
	<line class="st1" x1="649.55" y1="1085.7" x2="643.39" y2="1095.39"/>
	<line class="st1" x1="676.66" y1="1058.34" x2="682.82" y2="1048.65"/>
	<line class="st1" x1="649.55" y1="1058.34" x2="643.39" y2="1048.65"/>
</g>
<g>
	<g>
		<circle class="st0" cx="232.16" cy="865.17" r="30.5"/>
		<path d="M232.16,835.17c16.54,0,30,13.46,30,30s-13.46,30-30,30s-30-13.46-30-30S215.62,835.17,232.16,835.17 M232.16,834.17
			c-17.12,0-31,13.88-31,31s13.88,31,31,31s31-13.88,31-31S249.28,834.17,232.16,834.17L232.16,834.17z"/>
	</g>
	<g>
		<circle class="st0" cx="232.16" cy="865.17" r="19.16"/>
		<path d="M232.16,846.52c10.29,0,18.66,8.37,18.66,18.66s-8.37,18.66-18.66,18.66s-18.66-8.37-18.66-18.66
			S221.87,846.52,232.16,846.52 M232.16,845.52c-10.86,0-19.66,8.8-19.66,19.66s8.8,19.66,19.66,19.66s19.66-8.8,19.66-19.66
			S243.01,845.52,232.16,845.52L232.16,845.52z"/>
	</g>
	<line class="st1" x1="245.66" y1="879.45" x2="251.82" y2="889.14"/>
	<line class="st1" x1="218.55" y1="878.7" x2="212.39" y2="888.39"/>
	<line class="st1" x1="245.66" y1="851.34" x2="251.82" y2="841.65"/>
	<line class="st1" x1="218.55" y1="851.34" x2="212.39" y2="841.65"/>
</g>
<g>
	<g>
		<circle class="st0" cx="124.16" cy="865.17" r="30.5"/>
		<path d="M124.16,835.17c16.54,0,30,13.46,30,30s-13.46,30-30,30s-30-13.46-30-30S107.62,835.17,124.16,835.17 M124.16,834.17
			c-17.12,0-31,13.88-31,31s13.88,31,31,31s31-13.88,31-31S141.28,834.17,124.16,834.17L124.16,834.17z"/>
	</g>
	<g>
		<circle class="st0" cx="124.16" cy="865.17" r="19.16"/>
		<path d="M124.16,846.52c10.29,0,18.66,8.37,18.66,18.66s-8.37,18.66-18.66,18.66s-18.66-8.37-18.66-18.66
			S113.87,846.52,124.16,846.52 M124.16,845.52c-10.86,0-19.66,8.8-19.66,19.66s8.8,19.66,19.66,19.66s19.66-8.8,19.66-19.66
			S135.01,845.52,124.16,845.52L124.16,845.52z"/>
	</g>
	<line class="st1" x1="137.66" y1="879.45" x2="143.82" y2="889.14"/>
	<line class="st1" x1="110.55" y1="878.7" x2="104.39" y2="888.39"/>
	<line class="st1" x1="137.66" y1="851.34" x2="143.82" y2="841.65"/>
	<line class="st1" x1="110.55" y1="851.34" x2="104.39" y2="841.65"/>
</g>
<g>
	<g>
		<circle class="st0" cx="16.16" cy="865.17" r="30.5"/>
		<path d="M16.16,835.17c16.54,0,30,13.46,30,30s-13.46,30-30,30s-30-13.46-30-30S-0.38,835.17,16.16,835.17 M16.16,834.17
			c-17.12,0-31,13.88-31,31s13.88,31,31,31s31-13.88,31-31S33.28,834.17,16.16,834.17L16.16,834.17z"/>
	</g>
	<g>
		<circle class="st0" cx="16.16" cy="865.17" r="19.16"/>
		<path d="M16.16,846.52c10.29,0,18.66,8.37,18.66,18.66s-8.37,18.66-18.66,18.66S-2.5,875.46-2.5,865.17S5.87,846.52,16.16,846.52
			 M16.16,845.52c-10.86,0-19.66,8.8-19.66,19.66s8.8,19.66,19.66,19.66s19.66-8.8,19.66-19.66S27.01,845.52,16.16,845.52
			L16.16,845.52z"/>
	</g>
	<line class="st1" x1="29.66" y1="879.45" x2="35.82" y2="889.14"/>
	<line class="st1" x1="2.55" y1="878.7" x2="-3.61" y2="888.39"/>
	<line class="st1" x1="29.66" y1="851.34" x2="35.82" y2="841.65"/>
	<line class="st1" x1="2.55" y1="851.34" x2="-3.61" y2="841.65"/>
</g>
<g>
	<g>
		<circle class="st0" cx="-91.84" cy="865.17" r="30.5"/>
		<path d="M-91.84,835.17c16.54,0,30,13.46,30,30s-13.46,30-30,30s-30-13.46-30-30S-108.38,835.17-91.84,835.17 M-91.84,834.17
			c-17.12,0-31,13.88-31,31s13.88,31,31,31s31-13.88,31-31S-74.72,834.17-91.84,834.17L-91.84,834.17z"/>
	</g>
	<g>
		<circle class="st0" cx="-91.84" cy="865.17" r="19.16"/>
		<path d="M-91.84,846.52c10.29,0,18.66,8.37,18.66,18.66s-8.37,18.66-18.66,18.66s-18.66-8.37-18.66-18.66
			S-102.13,846.52-91.84,846.52 M-91.84,845.52c-10.86,0-19.66,8.8-19.66,19.66s8.8,19.66,19.66,19.66s19.66-8.8,19.66-19.66
			S-80.99,845.52-91.84,845.52L-91.84,845.52z"/>
	</g>
	<line class="st1" x1="-78.34" y1="879.45" x2="-72.18" y2="889.14"/>
	<line class="st1" x1="-105.45" y1="878.7" x2="-111.61" y2="888.39"/>
	<line class="st1" x1="-78.34" y1="851.34" x2="-72.18" y2="841.65"/>
	<line class="st1" x1="-105.45" y1="851.34" x2="-111.61" y2="841.65"/>
</g>
<g>
	<g>
		<circle class="st0" cx="339.16" cy="865.17" r="30.5"/>
		<path d="M339.16,835.17c16.54,0,30,13.46,30,30s-13.46,30-30,30s-30-13.46-30-30S322.62,835.17,339.16,835.17 M339.16,834.17
			c-17.12,0-31,13.88-31,31s13.88,31,31,31s31-13.88,31-31S356.28,834.17,339.16,834.17L339.16,834.17z"/>
	</g>
	<g>
		<circle class="st0" cx="339.16" cy="865.17" r="19.16"/>
		<path d="M339.16,846.52c10.29,0,18.66,8.37,18.66,18.66s-8.37,18.66-18.66,18.66s-18.66-8.37-18.66-18.66
			S328.87,846.52,339.16,846.52 M339.16,845.52c-10.86,0-19.66,8.8-19.66,19.66s8.8,19.66,19.66,19.66s19.66-8.8,19.66-19.66
			S350.01,845.52,339.16,845.52L339.16,845.52z"/>
	</g>
	<line class="st1" x1="352.66" y1="879.45" x2="358.82" y2="889.14"/>
	<line class="st1" x1="325.55" y1="878.7" x2="319.39" y2="888.39"/>
	<line class="st1" x1="352.66" y1="851.34" x2="358.82" y2="841.65"/>
	<line class="st1" x1="325.55" y1="851.34" x2="319.39" y2="841.65"/>
</g>
<g>
	<g>
		<circle class="st0" cx="448.16" cy="865.17" r="30.5"/>
		<path d="M448.16,835.17c16.54,0,30,13.46,30,30s-13.46,30-30,30s-30-13.46-30-30S431.62,835.17,448.16,835.17 M448.16,834.17
			c-17.12,0-31,13.88-31,31s13.88,31,31,31s31-13.88,31-31S465.28,834.17,448.16,834.17L448.16,834.17z"/>
	</g>
	<g>
		<circle class="st0" cx="448.16" cy="865.17" r="19.16"/>
		<path d="M448.16,846.52c10.29,0,18.66,8.37,18.66,18.66s-8.37,18.66-18.66,18.66s-18.66-8.37-18.66-18.66
			S437.87,846.52,448.16,846.52 M448.16,845.52c-10.86,0-19.66,8.8-19.66,19.66s8.8,19.66,19.66,19.66s19.66-8.8,19.66-19.66
			S459.01,845.52,448.16,845.52L448.16,845.52z"/>
	</g>
	<line class="st1" x1="461.66" y1="879.45" x2="467.82" y2="889.14"/>
	<line class="st1" x1="434.55" y1="878.7" x2="428.39" y2="888.39"/>
	<line class="st1" x1="461.66" y1="851.34" x2="467.82" y2="841.65"/>
	<line class="st1" x1="434.55" y1="851.34" x2="428.39" y2="841.65"/>
</g>
<g>
	<g>
		<circle class="st0" cx="555.16" cy="865.17" r="30.5"/>
		<path d="M555.16,835.17c16.54,0,30,13.46,30,30s-13.46,30-30,30s-30-13.46-30-30S538.62,835.17,555.16,835.17 M555.16,834.17
			c-17.12,0-31,13.88-31,31s13.88,31,31,31s31-13.88,31-31S572.28,834.17,555.16,834.17L555.16,834.17z"/>
	</g>
	<g>
		<circle class="st0" cx="555.16" cy="865.17" r="19.16"/>
		<path d="M555.16,846.52c10.29,0,18.66,8.37,18.66,18.66s-8.37,18.66-18.66,18.66s-18.66-8.37-18.66-18.66
			S544.87,846.52,555.16,846.52 M555.16,845.52c-10.86,0-19.66,8.8-19.66,19.66s8.8,19.66,19.66,19.66s19.66-8.8,19.66-19.66
			S566.01,845.52,555.16,845.52L555.16,845.52z"/>
	</g>
	<line class="st1" x1="568.66" y1="879.45" x2="574.82" y2="889.14"/>
	<line class="st1" x1="541.55" y1="878.7" x2="535.39" y2="888.39"/>
	<line class="st1" x1="568.66" y1="851.34" x2="574.82" y2="841.65"/>
	<line class="st1" x1="541.55" y1="851.34" x2="535.39" y2="841.65"/>
</g>
<g>
	<g>
		<circle class="st0" cx="661.13" cy="865.17" r="30.5"/>
		<path d="M661.13,835.17c16.54,0,30,13.46,30,30s-13.46,30-30,30s-30-13.46-30-30S644.59,835.17,661.13,835.17 M661.13,834.17
			c-17.12,0-31,13.88-31,31s13.88,31,31,31s31-13.88,31-31S678.26,834.17,661.13,834.17L661.13,834.17z"/>
	</g>
	<g>
		<circle class="st0" cx="661.13" cy="865.17" r="19.16"/>
		<path d="M661.13,846.52c10.29,0,18.66,8.37,18.66,18.66s-8.37,18.66-18.66,18.66s-18.66-8.37-18.66-18.66
			S650.85,846.52,661.13,846.52 M661.13,845.52c-10.86,0-19.66,8.8-19.66,19.66s8.8,19.66,19.66,19.66s19.66-8.8,19.66-19.66
			S671.99,845.52,661.13,845.52L661.13,845.52z"/>
	</g>
	<line class="st1" x1="674.64" y1="879.45" x2="680.79" y2="889.14"/>
	<line class="st1" x1="647.53" y1="878.7" x2="641.37" y2="888.39"/>
	<line class="st1" x1="674.64" y1="851.34" x2="680.79" y2="841.65"/>
	<line class="st1" x1="647.53" y1="851.34" x2="641.37" y2="841.65"/>
</g>
<g>
	<g>
		<circle class="st0" cx="1105.16" cy="866.67" r="30.5"/>
		<path d="M1105.16,836.67c16.54,0,30,13.46,30,30s-13.46,30-30,30s-30-13.46-30-30S1088.62,836.67,1105.16,836.67 M1105.16,835.67
			c-17.12,0-31,13.88-31,31s13.88,31,31,31s31-13.88,31-31S1122.28,835.67,1105.16,835.67L1105.16,835.67z"/>
	</g>
	<g>
		<circle class="st0" cx="1105.16" cy="866.67" r="19.16"/>
		<path d="M1105.16,848.02c10.29,0,18.66,8.37,18.66,18.66s-8.37,18.66-18.66,18.66s-18.66-8.37-18.66-18.66
			S1094.87,848.02,1105.16,848.02 M1105.16,847.02c-10.86,0-19.66,8.8-19.66,19.66s8.8,19.66,19.66,19.66s19.66-8.8,19.66-19.66
			S1116.01,847.02,1105.16,847.02L1105.16,847.02z"/>
	</g>
	<line class="st1" x1="1118.66" y1="880.95" x2="1124.82" y2="890.64"/>
	<line class="st1" x1="1091.55" y1="880.2" x2="1085.39" y2="889.89"/>
	<line class="st1" x1="1118.66" y1="852.84" x2="1124.82" y2="843.15"/>
	<line class="st1" x1="1091.55" y1="852.84" x2="1085.39" y2="843.15"/>
</g>
<g>
	<g>
		<circle class="st0" cx="997.16" cy="866.67" r="30.5"/>
		<path d="M997.16,836.67c16.54,0,30,13.46,30,30s-13.46,30-30,30s-30-13.46-30-30S980.62,836.67,997.16,836.67 M997.16,835.67
			c-17.12,0-31,13.88-31,31s13.88,31,31,31s31-13.88,31-31S1014.28,835.67,997.16,835.67L997.16,835.67z"/>
	</g>
	<g>
		<circle class="st0" cx="997.16" cy="866.67" r="19.16"/>
		<path d="M997.16,848.02c10.29,0,18.66,8.37,18.66,18.66s-8.37,18.66-18.66,18.66s-18.66-8.37-18.66-18.66
			S986.87,848.02,997.16,848.02 M997.16,847.02c-10.86,0-19.66,8.8-19.66,19.66s8.8,19.66,19.66,19.66s19.66-8.8,19.66-19.66
			S1008.01,847.02,997.16,847.02L997.16,847.02z"/>
	</g>
	<line class="st1" x1="1010.66" y1="880.95" x2="1016.82" y2="890.64"/>
	<line class="st1" x1="983.55" y1="880.2" x2="977.39" y2="889.89"/>
	<line class="st1" x1="1010.66" y1="852.84" x2="1016.82" y2="843.15"/>
	<line class="st1" x1="983.55" y1="852.84" x2="977.39" y2="843.15"/>
</g>
<g>
	<g>
		<circle class="st0" cx="889.16" cy="865.17" r="30.5"/>
		<path d="M889.16,835.17c16.54,0,30,13.46,30,30s-13.46,30-30,30s-30-13.46-30-30S872.62,835.17,889.16,835.17 M889.16,834.17
			c-17.12,0-31,13.88-31,31s13.88,31,31,31s31-13.88,31-31S906.28,834.17,889.16,834.17L889.16,834.17z"/>
	</g>
	<g>
		<circle class="st0" cx="889.16" cy="865.17" r="19.16"/>
		<path d="M889.16,846.52c10.29,0,18.66,8.37,18.66,18.66s-8.37,18.66-18.66,18.66s-18.66-8.37-18.66-18.66
			S878.87,846.52,889.16,846.52 M889.16,845.52c-10.86,0-19.66,8.8-19.66,19.66s8.8,19.66,19.66,19.66s19.66-8.8,19.66-19.66
			S900.01,845.52,889.16,845.52L889.16,845.52z"/>
	</g>
	<line class="st1" x1="902.66" y1="879.45" x2="908.82" y2="889.14"/>
	<line class="st1" x1="875.55" y1="878.7" x2="869.39" y2="888.39"/>
	<line class="st1" x1="902.66" y1="851.34" x2="908.82" y2="841.65"/>
	<line class="st1" x1="875.55" y1="851.34" x2="869.39" y2="841.65"/>
</g>
<g>
	<g>
		<circle class="st0" cx="781.16" cy="865.17" r="30.5"/>
		<path d="M781.16,835.17c16.54,0,30,13.46,30,30s-13.46,30-30,30s-30-13.46-30-30S764.62,835.17,781.16,835.17 M781.16,834.17
			c-17.12,0-31,13.88-31,31s13.88,31,31,31s31-13.88,31-31S798.28,834.17,781.16,834.17L781.16,834.17z"/>
	</g>
	<g>
		<circle class="st0" cx="781.16" cy="865.17" r="19.16"/>
		<path d="M781.16,846.52c10.29,0,18.66,8.37,18.66,18.66s-8.37,18.66-18.66,18.66s-18.66-8.37-18.66-18.66
			S770.87,846.52,781.16,846.52 M781.16,845.52c-10.86,0-19.66,8.8-19.66,19.66s8.8,19.66,19.66,19.66s19.66-8.8,19.66-19.66
			S792.01,845.52,781.16,845.52L781.16,845.52z"/>
	</g>
	<line class="st1" x1="794.66" y1="879.45" x2="800.82" y2="889.14"/>
	<line class="st1" x1="767.55" y1="878.7" x2="761.39" y2="888.39"/>
	<line class="st1" x1="794.66" y1="851.34" x2="800.82" y2="841.65"/>
	<line class="st1" x1="767.55" y1="851.34" x2="761.39" y2="841.65"/>
</g>
<g>
	<g>
		<circle class="st0" cx="1213.16" cy="866.67" r="30.5"/>
		<path d="M1213.16,836.67c16.54,0,30,13.46,30,30s-13.46,30-30,30s-30-13.46-30-30S1196.62,836.67,1213.16,836.67 M1213.16,835.67
			c-17.12,0-31,13.88-31,31s13.88,31,31,31s31-13.88,31-31S1230.28,835.67,1213.16,835.67L1213.16,835.67z"/>
	</g>
	<g>
		<circle class="st0" cx="1213.16" cy="866.67" r="19.16"/>
		<path d="M1213.16,848.02c10.29,0,18.66,8.37,18.66,18.66s-8.37,18.66-18.66,18.66s-18.66-8.37-18.66-18.66
			S1202.87,848.02,1213.16,848.02 M1213.16,847.02c-10.86,0-19.66,8.8-19.66,19.66s8.8,19.66,19.66,19.66s19.66-8.8,19.66-19.66
			S1224.01,847.02,1213.16,847.02L1213.16,847.02z"/>
	</g>
	<line class="st1" x1="1226.66" y1="880.95" x2="1232.82" y2="890.64"/>
	<line class="st1" x1="1199.55" y1="880.2" x2="1193.39" y2="889.89"/>
	<line class="st1" x1="1226.66" y1="852.84" x2="1232.82" y2="843.15"/>
	<line class="st1" x1="1199.55" y1="852.84" x2="1193.39" y2="843.15"/>
</g>
<g>
	<g>
		<circle class="st0" cx="1320.16" cy="866.67" r="30.5"/>
		<path d="M1320.16,836.67c16.54,0,30,13.46,30,30s-13.46,30-30,30s-30-13.46-30-30S1303.62,836.67,1320.16,836.67 M1320.16,835.67
			c-17.12,0-31,13.88-31,31s13.88,31,31,31s31-13.88,31-31S1337.28,835.67,1320.16,835.67L1320.16,835.67z"/>
	</g>
	<g>
		<circle class="st0" cx="1320.16" cy="866.67" r="19.16"/>
		<path d="M1320.16,848.02c10.29,0,18.66,8.37,18.66,18.66s-8.37,18.66-18.66,18.66s-18.66-8.37-18.66-18.66
			S1309.87,848.02,1320.16,848.02 M1320.16,847.02c-10.86,0-19.66,8.8-19.66,19.66s8.8,19.66,19.66,19.66s19.66-8.8,19.66-19.66
			S1331.01,847.02,1320.16,847.02L1320.16,847.02z"/>
	</g>
	<line class="st1" x1="1333.66" y1="880.95" x2="1339.82" y2="890.64"/>
	<line class="st1" x1="1306.55" y1="880.2" x2="1300.39" y2="889.89"/>
	<line class="st1" x1="1333.66" y1="852.84" x2="1339.82" y2="843.15"/>
	<line class="st1" x1="1306.55" y1="852.84" x2="1300.39" y2="843.15"/>
</g>
<g>
	<g>
		<circle class="st0" cx="1428.16" cy="866.67" r="30.5"/>
		<path d="M1428.16,836.67c16.54,0,30,13.46,30,30s-13.46,30-30,30s-30-13.46-30-30S1411.62,836.67,1428.16,836.67 M1428.16,835.67
			c-17.12,0-31,13.88-31,31s13.88,31,31,31s31-13.88,31-31S1445.28,835.67,1428.16,835.67L1428.16,835.67z"/>
	</g>
	<g>
		<circle class="st0" cx="1428.16" cy="866.67" r="19.16"/>
		<path d="M1428.16,848.02c10.29,0,18.66,8.37,18.66,18.66s-8.37,18.66-18.66,18.66s-18.66-8.37-18.66-18.66
			S1417.87,848.02,1428.16,848.02 M1428.16,847.02c-10.86,0-19.66,8.8-19.66,19.66s8.8,19.66,19.66,19.66s19.66-8.8,19.66-19.66
			S1439.01,847.02,1428.16,847.02L1428.16,847.02z"/>
	</g>
	<line class="st1" x1="1441.66" y1="880.95" x2="1447.82" y2="890.64"/>
	<line class="st1" x1="1414.55" y1="880.2" x2="1408.39" y2="889.89"/>
	<line class="st1" x1="1441.66" y1="852.84" x2="1447.82" y2="843.15"/>
	<line class="st1" x1="1414.55" y1="852.84" x2="1408.39" y2="843.15"/>
</g>
<g>
	<g>
		<circle class="st0" cx="1537.16" cy="866.67" r="30.5"/>
		<path d="M1537.16,836.67c16.54,0,30,13.46,30,30s-13.46,30-30,30s-30-13.46-30-30S1520.62,836.67,1537.16,836.67 M1537.16,835.67
			c-17.12,0-31,13.88-31,31s13.88,31,31,31s31-13.88,31-31S1554.28,835.67,1537.16,835.67L1537.16,835.67z"/>
	</g>
	<g>
		<circle class="st0" cx="1537.16" cy="866.67" r="19.16"/>
		<path d="M1537.16,848.02c10.29,0,18.66,8.37,18.66,18.66s-8.37,18.66-18.66,18.66s-18.66-8.37-18.66-18.66
			S1526.87,848.02,1537.16,848.02 M1537.16,847.02c-10.86,0-19.66,8.8-19.66,19.66s8.8,19.66,19.66,19.66s19.66-8.8,19.66-19.66
			S1548.01,847.02,1537.16,847.02L1537.16,847.02z"/>
	</g>
	<line class="st1" x1="1550.66" y1="880.95" x2="1556.82" y2="890.64"/>
	<line class="st1" x1="1523.55" y1="880.2" x2="1517.39" y2="889.89"/>
	<line class="st1" x1="1550.66" y1="852.84" x2="1556.82" y2="843.15"/>
	<line class="st1" x1="1523.55" y1="852.84" x2="1517.39" y2="843.15"/>
</g>
<rect x="178.66" y="1131.67" class="st1" width="107" height="52"/>
<rect x="286.66" y="1131.67" class="st1" width="107" height="52"/>
<rect x="394.66" y="1131.67" class="st1" width="107" height="52"/>
<rect x="502.66" y="1131.67" class="st1" width="107" height="52"/>
<rect x="610.66" y="1131.67" class="st1" width="107" height="52"/>
<rect x="178.66" y="1181.67" class="st1" width="107" height="52"/>
<rect x="286.66" y="1181.67" class="st1" width="107" height="52"/>
<rect x="394.66" y="1181.67" class="st1" width="107" height="52"/>
<rect x="502.66" y="1181.67" class="st1" width="107" height="52"/>
<rect x="610.66" y="1181.67" class="st1" width="107" height="52"/>
<rect x="178.66" y="928.67" class="st1" width="107" height="52"/>
<rect x="286.66" y="928.67" class="st1" width="107" height="52"/>
<rect x="394.66" y="928.67" class="st1" width="107" height="52"/>
<rect x="502.66" y="928.67" class="st1" width="107" height="52"/>
<rect x="610.66" y="928.67" class="st1" width="107" height="52"/>
<rect x="178.66" y="978.67" class="st1" width="107" height="52"/>
<rect x="286.66" y="978.67" class="st1" width="107" height="52"/>
<rect x="394.66" y="978.67" class="st1" width="107" height="52"/>
<rect x="-145.34" y="928.67" class="st1" width="107" height="52"/>
<rect x="-37.34" y="928.67" class="st1" width="107" height="52"/>
<rect x="70.66" y="928.67" class="st1" width="107" height="52"/>
<rect x="-145.34" y="978.67" class="st1" width="107" height="52"/>
<rect x="-37.34" y="978.67" class="st1" width="107" height="52"/>
<rect x="70.66" y="978.67" class="st1" width="107" height="52"/>
<rect x="502.66" y="978.67" class="st1" width="107" height="52"/>
<rect x="610.66" y="978.67" class="st1" width="107" height="52"/>
<rect x="1050.66" y="928.67" class="st1" width="107" height="52"/>
<rect x="1158.66" y="928.67" class="st1" width="107" height="52"/>
<rect x="1266.66" y="928.67" class="st1" width="107" height="52"/>
<rect x="1374.66" y="928.67" class="st1" width="107" height="52"/>
<rect x="1482.66" y="928.67" class="st1" width="107" height="52"/>
<rect x="1050.66" y="978.67" class="st1" width="107" height="52"/>
<rect x="1158.66" y="978.67" class="st1" width="107" height="52"/>
<rect x="1266.66" y="978.67" class="st1" width="107" height="52"/>
<rect x="726.66" y="928.67" class="st1" width="107" height="52"/>
<rect x="834.66" y="928.67" class="st1" width="107" height="52"/>
<rect x="942.66" y="928.67" class="st1" width="107" height="52"/>
<rect x="726.66" y="978.67" class="st1" width="107" height="52"/>
<rect x="834.66" y="978.67" class="st1" width="107" height="52"/>
<rect x="942.66" y="978.67" class="st1" width="107" height="52"/>
<rect x="1374.66" y="978.67" class="st1" width="107" height="52"/>
<rect x="1482.66" y="978.67" class="st1" width="107" height="52"/>
<g>
	<g>
		<circle class="st0" cx="781.16" cy="1072.17" r="30.5"/>
		<path d="M781.16,1042.17c16.54,0,30,13.46,30,30c0,16.54-13.46,30-30,30s-30-13.46-30-30
			C751.16,1055.63,764.62,1042.17,781.16,1042.17 M781.16,1041.17c-17.12,0-31,13.88-31,31s13.88,31,31,31s31-13.88,31-31
			S798.28,1041.17,781.16,1041.17L781.16,1041.17z"/>
	</g>
	<g>
		<circle class="st0" cx="781.16" cy="1072.17" r="19.16"/>
		<path d="M781.16,1053.52c10.29,0,18.66,8.37,18.66,18.66s-8.37,18.66-18.66,18.66s-18.66-8.37-18.66-18.66
			S770.87,1053.52,781.16,1053.52 M781.16,1052.52c-10.86,0-19.66,8.8-19.66,19.66c0,10.86,8.8,19.66,19.66,19.66
			s19.66-8.8,19.66-19.66C800.82,1061.32,792.01,1052.52,781.16,1052.52L781.16,1052.52z"/>
	</g>
	<line class="st1" x1="794.66" y1="1086.45" x2="800.82" y2="1096.14"/>
	<line class="st1" x1="767.55" y1="1085.7" x2="761.39" y2="1095.39"/>
	<line class="st1" x1="794.66" y1="1058.34" x2="800.82" y2="1048.65"/>
	<line class="st1" x1="767.55" y1="1058.34" x2="761.39" y2="1048.65"/>
</g>
<g>
	<g>
		<circle class="st0" cx="889.16" cy="1072.17" r="30.5"/>
		<path d="M889.16,1042.17c16.54,0,30,13.46,30,30c0,16.54-13.46,30-30,30s-30-13.46-30-30
			C859.16,1055.63,872.62,1042.17,889.16,1042.17 M889.16,1041.17c-17.12,0-31,13.88-31,31s13.88,31,31,31s31-13.88,31-31
			S906.28,1041.17,889.16,1041.17L889.16,1041.17z"/>
	</g>
	<g>
		<circle class="st0" cx="889.16" cy="1072.17" r="19.16"/>
		<path d="M889.16,1053.52c10.29,0,18.66,8.37,18.66,18.66s-8.37,18.66-18.66,18.66s-18.66-8.37-18.66-18.66
			S878.87,1053.52,889.16,1053.52 M889.16,1052.52c-10.86,0-19.66,8.8-19.66,19.66c0,10.86,8.8,19.66,19.66,19.66
			s19.66-8.8,19.66-19.66C908.82,1061.32,900.01,1052.52,889.16,1052.52L889.16,1052.52z"/>
	</g>
	<line class="st1" x1="902.66" y1="1086.45" x2="908.82" y2="1096.14"/>
	<line class="st1" x1="875.55" y1="1085.7" x2="869.39" y2="1095.39"/>
	<line class="st1" x1="902.66" y1="1058.34" x2="908.82" y2="1048.65"/>
	<line class="st1" x1="875.55" y1="1058.34" x2="869.39" y2="1048.65"/>
</g>
<g>
	<g>
		<circle class="st0" cx="997.16" cy="1072.17" r="30.5"/>
		<path d="M997.16,1042.17c16.54,0,30,13.46,30,30c0,16.54-13.46,30-30,30s-30-13.46-30-30
			C967.16,1055.63,980.62,1042.17,997.16,1042.17 M997.16,1041.17c-17.12,0-31,13.88-31,31s13.88,31,31,31s31-13.88,31-31
			S1014.28,1041.17,997.16,1041.17L997.16,1041.17z"/>
	</g>
	<g>
		<circle class="st0" cx="997.16" cy="1072.17" r="19.16"/>
		<path d="M997.16,1053.52c10.29,0,18.66,8.37,18.66,18.66s-8.37,18.66-18.66,18.66s-18.66-8.37-18.66-18.66
			S986.87,1053.52,997.16,1053.52 M997.16,1052.52c-10.86,0-19.66,8.8-19.66,19.66c0,10.86,8.8,19.66,19.66,19.66
			s19.66-8.8,19.66-19.66C1016.82,1061.32,1008.01,1052.52,997.16,1052.52L997.16,1052.52z"/>
	</g>
	<line class="st1" x1="1010.66" y1="1086.45" x2="1016.82" y2="1096.14"/>
	<line class="st1" x1="983.55" y1="1085.7" x2="977.39" y2="1095.39"/>
	<line class="st1" x1="1010.66" y1="1058.34" x2="1016.82" y2="1048.65"/>
	<line class="st1" x1="983.55" y1="1058.34" x2="977.39" y2="1048.65"/>
</g>
<g>
	<g>
		<circle class="st0" cx="1105.16" cy="1072.17" r="30.5"/>
		<path d="M1105.16,1042.17c16.54,0,30,13.46,30,30c0,16.54-13.46,30-30,30s-30-13.46-30-30
			C1075.16,1055.63,1088.62,1042.17,1105.16,1042.17 M1105.16,1041.17c-17.12,0-31,13.88-31,31s13.88,31,31,31s31-13.88,31-31
			S1122.28,1041.17,1105.16,1041.17L1105.16,1041.17z"/>
	</g>
	<g>
		<circle class="st0" cx="1105.16" cy="1072.17" r="19.16"/>
		<path d="M1105.16,1053.52c10.29,0,18.66,8.37,18.66,18.66s-8.37,18.66-18.66,18.66s-18.66-8.37-18.66-18.66
			S1094.87,1053.52,1105.16,1053.52 M1105.16,1052.52c-10.86,0-19.66,8.8-19.66,19.66c0,10.86,8.8,19.66,19.66,19.66
			s19.66-8.8,19.66-19.66C1124.82,1061.32,1116.01,1052.52,1105.16,1052.52L1105.16,1052.52z"/>
	</g>
	<line class="st1" x1="1118.66" y1="1086.45" x2="1124.82" y2="1096.14"/>
	<line class="st1" x1="1091.55" y1="1085.7" x2="1085.39" y2="1095.39"/>
	<line class="st1" x1="1118.66" y1="1058.34" x2="1124.82" y2="1048.65"/>
	<line class="st1" x1="1091.55" y1="1058.34" x2="1085.39" y2="1048.65"/>
</g>
<g>
	<g>
		<circle class="st0" cx="1213.16" cy="1072.17" r="30.5"/>
		<path d="M1213.16,1042.17c16.54,0,30,13.46,30,30c0,16.54-13.46,30-30,30s-30-13.46-30-30
			C1183.16,1055.63,1196.62,1042.17,1213.16,1042.17 M1213.16,1041.17c-17.12,0-31,13.88-31,31s13.88,31,31,31s31-13.88,31-31
			S1230.28,1041.17,1213.16,1041.17L1213.16,1041.17z"/>
	</g>
	<g>
		<circle class="st0" cx="1213.16" cy="1072.17" r="19.16"/>
		<path d="M1213.16,1053.52c10.29,0,18.66,8.37,18.66,18.66s-8.37,18.66-18.66,18.66s-18.66-8.37-18.66-18.66
			S1202.87,1053.52,1213.16,1053.52 M1213.16,1052.52c-10.86,0-19.66,8.8-19.66,19.66c0,10.86,8.8,19.66,19.66,19.66
			s19.66-8.8,19.66-19.66C1232.82,1061.32,1224.01,1052.52,1213.16,1052.52L1213.16,1052.52z"/>
	</g>
	<line class="st1" x1="1226.66" y1="1086.45" x2="1232.82" y2="1096.14"/>
	<line class="st1" x1="1199.55" y1="1085.7" x2="1193.39" y2="1095.39"/>
	<line class="st1" x1="1226.66" y1="1058.34" x2="1232.82" y2="1048.65"/>
	<line class="st1" x1="1199.55" y1="1058.34" x2="1193.39" y2="1048.65"/>
</g>
<rect x="726.66" y="1131.67" class="st1" width="107" height="52"/>
<rect x="834.66" y="1131.67" class="st1" width="107" height="52"/>
<rect x="942.66" y="1131.67" class="st1" width="107" height="52"/>
<rect x="1050.66" y="1131.67" class="st1" width="107" height="52"/>
<rect x="1158.66" y="1131.67" class="st1" width="107" height="52"/>
<rect x="726.66" y="1181.67" class="st1" width="107" height="52"/>
<rect x="834.66" y="1181.67" class="st1" width="107" height="52"/>
<rect x="942.66" y="1181.67" class="st1" width="107" height="52"/>
<rect x="1050.66" y="1181.67" class="st1" width="107" height="52"/>
<rect x="1158.66" y="1181.67" class="st1" width="107" height="52"/>
<text transform="matrix(1 0 0 1 69.6573 374.5501)" style="font-family:'ArialMT'; font-size:26px;">STATUS</text>
<text transform="matrix(1 0 0 1 69.6575 424.6742)" style="font-family:'ArialMT'; font-size:26px;">RIGHT</text>
<text transform="matrix(1 0 0 1 69.6572 1165.7528)" style="font-family:'ArialMT'; font-size:26px;">STATUS</text>
<text transform="matrix(1 0 0 1 69.6574 1215.8768)" style="font-family:'ArialMT'; font-size:26px;">RIGHT</text>
<text transform="matrix(6.123234e-17 -1 1 6.123234e-17 -208.3644 873.9041)"><tspan x="0" y="0" style="font-family:'ArialMT'; font-size:26px;">PERMANENT  </tspan><tspan x="39.01" y="31.2" style="font-family:'ArialMT'; font-size:26px;">TEETH </tspan></text>
<text transform="matrix(1 0 0 1 -145.3425 1072.1742)"><tspan x="0" y="0" style="font-family:'ArialMT'; font-size:26px;">TEMPORARY </tspan><tspan x="0" y="31.2" style="font-family:'ArialMT'; font-size:26px;">TEETH</tspan></text>
<text transform="matrix(1 0 0 1 1300.3939 424.6743)" style="font-family:'ArialMT'; font-size:26px;">LEFT</text>
<text transform="matrix(1 0 0 1 1300.3939 1215.8776)" style="font-family:'ArialMT'; font-size:26px;">LEFT</text>
</svg>
