<svg xmlns="http://www.w3.org/2000/svg" xmlns:xlink="http://www.w3.org/1999/xlink" width="738" zoomAndPan="magnify" viewBox="0 0 553.5 553.499967" height="738" preserveAspectRatio="xMidYMid meet" version="1.0"><defs><clipPath id="57180b4079"><path d="M 138 0.519531 L 415 0.519531 L 415 427 L 138 427 Z M 138 0.519531 " clip-rule="nonzero"/></clipPath><clipPath id="c2fb6ac2c6"><path d="M 0.210938 343 L 552.464844 343 L 552.464844 552.769531 L 0.210938 552.769531 Z M 0.210938 343 " clip-rule="nonzero"/></clipPath></defs><g clip-path="url(#57180b4079)"><path fill="#000000" d="M 300.664062 343.179688 L 300.664062 24.84375 C 300.664062 18.402344 298.164062 12.222656 293.5625 7.621094 C 288.960938 3.148438 282.78125 0.519531 276.339844 0.519531 C 269.894531 0.519531 263.714844 3.148438 259.113281 7.621094 C 254.511719 12.222656 252.011719 18.402344 252.011719 24.84375 L 252.011719 343.179688 C 252.011719 343.179688 205.597656 296.761719 179.695312 270.859375 C 175.09375 266.257812 168.914062 263.757812 162.46875 263.757812 C 156.027344 263.757812 149.847656 266.257812 145.246094 270.859375 C 135.777344 280.328125 135.777344 295.710938 145.246094 305.179688 L 260.035156 419.96875 C 264.371094 424.304688 270.160156 426.671875 276.339844 426.671875 C 282.519531 426.671875 288.304688 424.304688 292.644531 419.96875 L 407.433594 305.179688 C 416.898438 295.710938 416.898438 280.328125 407.433594 270.859375 C 402.828125 266.257812 396.648438 263.757812 390.207031 263.757812 C 383.765625 263.757812 377.585938 266.257812 372.980469 270.859375 C 346.949219 296.761719 300.664062 343.179688 300.664062 343.179688 Z M 300.664062 343.179688 " fill-opacity="1" fill-rule="evenodd"/></g><g clip-path="url(#c2fb6ac2c6)"><path fill="#000000" d="M 0.210938 506.75 C 0.210938 518.976562 5.078125 530.679688 13.757812 539.226562 C 22.433594 547.90625 34.136719 552.769531 46.234375 552.769531 L 506.441406 552.769531 C 518.671875 552.769531 530.375 547.90625 538.921875 539.226562 C 547.597656 530.550781 552.464844 518.847656 552.464844 506.75 L 552.464844 367.503906 C 552.464844 354.089844 541.550781 343.179688 528.136719 343.179688 C 521.695312 343.179688 515.515625 345.808594 510.914062 350.277344 C 506.3125 354.878906 503.8125 361.058594 503.8125 367.503906 L 503.8125 481.242188 C 503.8125 493.996094 493.558594 504.25 480.800781 504.25 L 71.875 504.25 C 59.121094 504.25 48.863281 493.996094 48.863281 481.242188 L 48.863281 367.503906 C 48.863281 361.058594 46.234375 354.878906 41.761719 350.277344 C 37.160156 345.675781 30.980469 343.179688 24.539062 343.179688 C 11.125 343.179688 0.210938 354.089844 0.210938 367.503906 Z M 0.210938 506.75 " fill-opacity="1" fill-rule="evenodd"/></g></svg>