<svg xmlns="http://www.w3.org/2000/svg" xmlns:xlink="http://www.w3.org/1999/xlink" width="280" zoomAndPan="magnify" viewBox="0 0 210 261.749984" height="349" preserveAspectRatio="xMidYMid meet" version="1.0"><defs><clipPath id="189153b14d"><path d="M 0.574219 0.175781 L 209.097656 0.175781 L 209.097656 260.832031 L 0.574219 260.832031 Z M 0.574219 0.175781 " clip-rule="nonzero"/></clipPath></defs><g clip-path="url(#189153b14d)"><path fill="#000000" d="M 144.777344 0.414062 L 35.542969 0.414062 C 16.238281 0.414062 0.53125 16.121094 0.53125 35.425781 L 0.53125 225.582031 C 0.53125 244.890625 16.238281 260.597656 35.542969 260.597656 L 174.136719 260.597656 C 193.4375 260.597656 209.144531 244.890625 209.144531 225.582031 L 209.144531 72.359375 Z M 149.878906 33.792969 L 179.285156 66.660156 L 149.878906 66.660156 Z M 174.132812 242.144531 L 35.542969 242.144531 C 26.410156 242.144531 18.984375 234.714844 18.984375 225.582031 L 18.984375 35.425781 C 18.984375 26.292969 26.410156 18.867188 35.542969 18.867188 L 131.425781 18.867188 L 131.425781 85.109375 L 190.691406 85.109375 L 190.691406 225.582031 C 190.6875 234.714844 183.261719 242.144531 174.132812 242.144531 Z M 174.132812 242.144531 " fill-opacity="1" fill-rule="nonzero"/></g><path fill="#000000" d="M 38.789062 186.945312 L 170.878906 186.945312 L 170.878906 205.398438 L 38.789062 205.398438 Z M 38.789062 186.945312 " fill-opacity="1" fill-rule="nonzero"/><path fill="#000000" d="M 38.789062 146.84375 L 170.878906 146.84375 L 170.878906 165.300781 L 38.789062 165.300781 Z M 38.789062 146.84375 " fill-opacity="1" fill-rule="nonzero"/><path fill="#000000" d="M 38.789062 106.753906 L 170.878906 106.753906 L 170.878906 125.207031 L 38.789062 125.207031 Z M 38.789062 106.753906 " fill-opacity="1" fill-rule="nonzero"/></svg>