<svg xmlns="http://www.w3.org/2000/svg" xmlns:xlink="http://www.w3.org/1999/xlink" width="1080" zoomAndPan="magnify" viewBox="0 0 810 809.999993" height="1080" preserveAspectRatio="xMidYMid meet" version="1.0"><rect x="-81" width="972" fill="#ffffff" y="-80.999999" height="971.999992" fill-opacity="1"/><rect x="-81" width="972" fill="#ffffff" y="-80.999999" height="971.999992" fill-opacity="1"/><path fill="#039be5" d="M 409.585938 75.9375 C 224.523438 73.4375 73.4375 224.523438 75.9375 409.585938 C 78.40625 587.074219 222.925781 731.59375 400.414062 734.0625 C 585.507812 736.59375 736.5625 585.511719 734.03125 400.445312 C 731.59375 222.925781 587.074219 78.40625 409.585938 75.9375 Z M 609.589844 593.65625 C 609.273438 593.996094 608.925781 594.300781 608.542969 594.5625 C 608.160156 594.828125 607.753906 595.046875 607.324219 595.222656 C 606.894531 595.398438 606.453125 595.523438 605.996094 595.601562 C 605.535156 595.679688 605.078125 595.703125 604.613281 595.679688 C 604.148438 595.65625 603.695312 595.582031 603.246094 595.457031 C 602.800781 595.332031 602.371094 595.160156 601.960938 594.941406 C 601.550781 594.726562 601.171875 594.464844 600.820312 594.160156 C 600.46875 593.859375 600.152344 593.523438 599.875 593.152344 C 592.800781 583.894531 584.964844 575.332031 576.367188 567.46875 C 567.769531 559.605469 558.546875 552.5625 548.695312 546.339844 C 508.417969 520.488281 457.382812 506.25 405 506.25 C 352.617188 506.25 301.582031 520.488281 261.304688 546.339844 C 251.453125 552.558594 242.230469 559.601562 233.632812 567.460938 C 225.039062 575.324219 217.199219 583.878906 210.125 593.136719 C 209.847656 593.507812 209.53125 593.84375 209.179688 594.144531 C 208.828125 594.449219 208.449219 594.707031 208.039062 594.925781 C 207.628906 595.144531 207.199219 595.316406 206.753906 595.441406 C 206.304688 595.566406 205.851562 595.640625 205.386719 595.664062 C 204.921875 595.6875 204.464844 595.664062 204.003906 595.585938 C 203.546875 595.507812 203.105469 595.382812 202.675781 595.207031 C 202.246094 595.03125 201.839844 594.8125 201.457031 594.546875 C 201.074219 594.285156 200.726562 593.980469 200.410156 593.640625 C 194.667969 587.441406 189.222656 580.996094 184.070312 574.300781 C 178.917969 567.601562 174.078125 560.683594 169.558594 553.546875 C 165.039062 546.40625 160.851562 539.078125 157.003906 531.558594 C 153.152344 524.035156 149.652344 516.355469 146.503906 508.515625 C 143.355469 500.671875 140.570312 492.707031 138.148438 484.609375 C 135.730469 476.515625 133.683594 468.324219 132.011719 460.042969 C 130.339844 451.761719 129.046875 443.417969 128.136719 435.019531 C 127.226562 426.617188 126.703125 418.195312 126.5625 409.746094 C 123.984375 255.796875 250.308594 126.941406 404.320312 126.5625 C 558.332031 126.183594 683.4375 251.242188 683.4375 405 C 683.445312 413.648438 683.046875 422.277344 682.246094 430.886719 C 681.445312 439.496094 680.246094 448.050781 678.644531 456.550781 C 677.042969 465.050781 675.050781 473.453125 672.664062 481.765625 C 670.277344 490.078125 667.507812 498.261719 664.355469 506.3125 C 661.203125 514.367188 657.679688 522.253906 653.792969 529.976562 C 649.902344 537.699219 645.660156 545.226562 641.066406 552.550781 C 636.472656 559.878906 631.546875 566.976562 626.289062 573.839844 C 621.03125 580.707031 615.464844 587.3125 609.589844 593.65625 Z M 609.589844 593.65625 " fill-opacity="1" fill-rule="nonzero"/><path fill="#039be5" d="M 405 227.8125 C 373.800781 227.8125 345.59375 239.503906 325.550781 260.75 C 305.507812 281.996094 295.492188 311.375 297.753906 342.90625 C 302.34375 405 350.453125 455.625 405 455.625 C 459.546875 455.625 507.5625 405 512.246094 342.921875 C 514.585938 311.691406 504.652344 282.582031 484.277344 260.941406 C 464.152344 239.582031 435.992188 227.8125 405 227.8125 Z M 405 227.8125 " fill-opacity="1" fill-rule="nonzero"/></svg>