<svg xmlns="http://www.w3.org/2000/svg" xmlns:xlink="http://www.w3.org/1999/xlink" width="1080" zoomAndPan="magnify" viewBox="0 0 810 809.999993" height="1080" preserveAspectRatio="xMidYMid meet" version="1.0"><path fill="#039de5" d="M 748.300781 61.777344 C 747.011719 60.492188 745.640625 59.304688 744.183594 58.214844 C 742.722656 57.125 741.195312 56.144531 739.597656 55.273438 C 737.996094 54.40625 736.34375 53.652344 734.636719 53.023438 C 732.929688 52.390625 731.183594 51.882812 729.40625 51.503906 C 727.625 51.121094 725.828125 50.871094 724.011719 50.746094 C 722.195312 50.625 720.378906 50.632812 718.5625 50.769531 C 716.75 50.910156 714.953125 51.175781 713.175781 51.574219 C 711.398438 51.972656 709.660156 52.492188 707.957031 53.140625 L 75.097656 292.675781 L 74.972656 292.675781 C 73.160156 293.375 71.410156 294.207031 69.722656 295.171875 C 68.039062 296.136719 66.4375 297.226562 64.917969 298.4375 C 63.398438 299.652344 61.980469 300.972656 60.664062 302.402344 C 59.347656 303.832031 58.152344 305.351562 57.066406 306.964844 C 55.984375 308.578125 55.035156 310.265625 54.210938 312.027344 C 53.386719 313.785156 52.703125 315.597656 52.15625 317.464844 C 51.613281 319.328125 51.214844 321.226562 50.960938 323.152344 C 50.707031 325.078125 50.601562 327.011719 50.644531 328.953125 C 50.6875 330.898438 50.878906 332.824219 51.214844 334.738281 C 51.554688 336.652344 52.039062 338.527344 52.664062 340.367188 C 53.292969 342.207031 54.054688 343.984375 54.957031 345.707031 C 55.855469 347.429688 56.882812 349.074219 58.035156 350.636719 C 59.1875 352.199219 60.453125 353.667969 61.832031 355.039062 C 63.207031 356.40625 64.683594 357.664062 66.253906 358.808594 C 67.824219 359.953125 69.472656 360.96875 71.199219 361.859375 C 72.925781 362.75 74.710938 363.503906 76.554688 364.121094 L 77.203125 364.324219 L 294.417969 457.082031 C 295.46875 457.402344 296.542969 457.652344 297.628906 457.832031 C 298.714844 458.011719 299.8125 458.121094 300.914062 458.15625 C 302.015625 458.195312 303.113281 458.160156 304.210938 458.054688 C 305.308594 457.949219 306.394531 457.769531 307.464844 457.523438 C 308.539062 457.273438 309.59375 456.957031 310.625 456.570312 C 311.660156 456.1875 312.660156 455.734375 313.636719 455.21875 C 314.609375 454.703125 315.542969 454.125 316.441406 453.484375 C 317.339844 452.847656 318.195312 452.152344 319 451.402344 L 667.617188 126.5625 C 668.136719 126.042969 668.703125 125.578125 669.3125 125.171875 C 669.921875 124.761719 670.566406 124.417969 671.246094 124.136719 C 671.925781 123.855469 672.625 123.644531 673.34375 123.5 C 674.066406 123.359375 674.792969 123.285156 675.527344 123.285156 C 676.261719 123.285156 676.988281 123.359375 677.710938 123.5 C 678.429688 123.644531 679.128906 123.855469 679.808594 124.136719 C 680.488281 124.417969 681.132812 124.761719 681.742188 125.171875 C 682.351562 125.578125 682.917969 126.042969 683.4375 126.5625 C 683.957031 127.082031 684.421875 127.648438 684.828125 128.257812 C 685.238281 128.867188 685.582031 129.511719 685.863281 130.191406 C 686.144531 130.871094 686.355469 131.570312 686.5 132.289062 C 686.640625 133.011719 686.714844 133.738281 686.714844 134.472656 C 686.714844 135.207031 686.640625 135.933594 686.5 136.65625 C 686.355469 137.375 686.144531 138.074219 685.863281 138.753906 C 685.582031 139.433594 685.238281 140.078125 684.828125 140.6875 C 684.421875 141.296875 683.957031 141.863281 683.4375 142.382812 L 358.582031 490.839844 C 357.832031 491.648438 357.136719 492.5 356.5 493.398438 C 355.859375 494.296875 355.28125 495.234375 354.765625 496.207031 C 354.25 497.179688 353.796875 498.183594 353.414062 499.214844 C 353.027344 500.25 352.710938 501.300781 352.460938 502.375 C 352.214844 503.449219 352.035156 504.535156 351.929688 505.632812 C 351.824219 506.730469 351.789062 507.828125 351.828125 508.929688 C 351.863281 510.03125 351.972656 511.125 352.152344 512.210938 C 352.332031 513.300781 352.582031 514.371094 352.902344 515.425781 L 445.691406 732.765625 C 445.785156 733.082031 445.878906 733.367188 445.992188 733.667969 C 451.054688 748.332031 463.867188 758.679688 479.355469 759.375 L 480.9375 759.375 C 482.882812 759.386719 484.816406 759.253906 486.738281 758.972656 C 488.664062 758.695312 490.554688 758.277344 492.414062 757.714844 C 494.277344 757.152344 496.085938 756.457031 497.84375 755.625 C 499.597656 754.792969 501.285156 753.832031 502.898438 752.75 C 504.511719 751.664062 506.035156 750.464844 507.46875 749.152344 C 508.902344 747.839844 510.230469 746.429688 511.453125 744.917969 C 512.675781 743.40625 513.777344 741.8125 514.761719 740.136719 C 515.746094 738.460938 516.601562 736.722656 517.324219 734.917969 L 756.828125 102.230469 C 757.484375 100.527344 758.015625 98.789062 758.421875 97.007812 C 758.824219 95.230469 759.101562 93.429688 759.246094 91.613281 C 759.394531 89.792969 759.410156 87.972656 759.292969 86.152344 C 759.175781 84.332031 758.929688 82.527344 758.554688 80.742188 C 758.175781 78.957031 757.675781 77.207031 757.046875 75.496094 C 756.417969 73.78125 755.667969 72.121094 754.800781 70.515625 C 753.933594 68.914062 752.953125 67.378906 751.867188 65.914062 C 750.777344 64.449219 749.589844 63.070312 748.300781 61.777344 Z M 748.300781 61.777344 " fill-opacity="1" fill-rule="nonzero"/></svg>